<mxfile host="Electron" modified="2024-04-15T14:28:05.281Z" agent="Mozilla/5.0 (Windows NT 10.0; Win64; x64) AppleWebKit/537.36 (KHTML, like Gecko) draw.io/24.0.4 Chrome/120.0.6099.109 Electron/28.1.0 Safari/537.36" etag="IoebjBP52qA-DFtzUiat" version="24.0.4" type="device">
  <diagram name="第 1 页" id="bRs-Yu05ukqLQXvmFO2j">
    <mxGraphModel dx="4052" dy="2722" grid="1" gridSize="10" guides="1" tooltips="1" connect="1" arrows="1" fold="1" page="1" pageScale="1" pageWidth="827" pageHeight="1169" math="0" shadow="0">
      <root>
        <mxCell id="0" />
        <mxCell id="1" parent="0" />
        <mxCell id="MnvEVy4aJMQu8oGoP_gj-46" value="" style="rounded=0;whiteSpace=wrap;html=1;" vertex="1" parent="1">
          <mxGeometry x="-629.75" y="-727" width="90" height="91.5" as="geometry" />
        </mxCell>
        <mxCell id="MnvEVy4aJMQu8oGoP_gj-41" value="" style="rounded=0;whiteSpace=wrap;html=1;" vertex="1" parent="1">
          <mxGeometry x="384" y="-717.5" width="216" height="65.5" as="geometry" />
        </mxCell>
        <mxCell id="XkUp8fBl9SVcWvUChdZI-115" value="" style="rounded=0;whiteSpace=wrap;html=1;" parent="1" vertex="1">
          <mxGeometry x="201" y="1060" width="160" height="80" as="geometry" />
        </mxCell>
        <mxCell id="XkUp8fBl9SVcWvUChdZI-106" value="" style="rounded=0;whiteSpace=wrap;html=1;" parent="1" vertex="1">
          <mxGeometry y="200" width="160" height="60" as="geometry" />
        </mxCell>
        <mxCell id="XkUp8fBl9SVcWvUChdZI-30" value="" style="rounded=1;whiteSpace=wrap;html=1;fillColor=#f5f5f5;strokeColor=#666666;fontColor=#333333;" parent="1" vertex="1">
          <mxGeometry x="-80" y="-1160" width="560" height="280" as="geometry" />
        </mxCell>
        <mxCell id="w51F5SMFu8FCbX86xvPS-2" value="通知/新闻" style="rounded=0;whiteSpace=wrap;html=1;" parent="1" vertex="1">
          <mxGeometry y="-460" width="160" height="40" as="geometry" />
        </mxCell>
        <mxCell id="w51F5SMFu8FCbX86xvPS-3" value="首页" style="rounded=0;whiteSpace=wrap;html=1;fillColor=#ffe6cc;strokeColor=#d79b00;" parent="1" vertex="1">
          <mxGeometry width="40" height="40" as="geometry" />
        </mxCell>
        <mxCell id="w51F5SMFu8FCbX86xvPS-4" value="球员" style="rounded=0;whiteSpace=wrap;html=1;" parent="1" vertex="1">
          <mxGeometry x="40" width="40" height="40" as="geometry" />
        </mxCell>
        <mxCell id="w51F5SMFu8FCbX86xvPS-5" value="管理" style="rounded=0;whiteSpace=wrap;html=1;" parent="1" vertex="1">
          <mxGeometry x="80" width="40" height="40" as="geometry" />
        </mxCell>
        <mxCell id="w51F5SMFu8FCbX86xvPS-6" value="我的" style="rounded=0;whiteSpace=wrap;html=1;" parent="1" vertex="1">
          <mxGeometry x="120" width="40" height="40" as="geometry" />
        </mxCell>
        <mxCell id="w51F5SMFu8FCbX86xvPS-8" value="包括设置等等&lt;br&gt;&lt;br&gt;&lt;br&gt;&lt;br&gt;系统通知：&lt;br&gt;明天你有一场比赛&lt;br&gt;&lt;br&gt;&lt;br&gt;消息通知：&lt;br&gt;有人邀请你加入xxx球队" style="rounded=0;whiteSpace=wrap;html=1;" parent="1" vertex="1">
          <mxGeometry x="1" y="1860" width="160" height="340" as="geometry" />
        </mxCell>
        <mxCell id="w51F5SMFu8FCbX86xvPS-9" value="首页" style="rounded=0;whiteSpace=wrap;html=1;" parent="1" vertex="1">
          <mxGeometry x="1" y="2160" width="40" height="40" as="geometry" />
        </mxCell>
        <mxCell id="w51F5SMFu8FCbX86xvPS-10" value="球员" style="rounded=0;whiteSpace=wrap;html=1;" parent="1" vertex="1">
          <mxGeometry x="41" y="2160" width="40" height="40" as="geometry" />
        </mxCell>
        <mxCell id="w51F5SMFu8FCbX86xvPS-12" value="管理" style="rounded=0;whiteSpace=wrap;html=1;" parent="1" vertex="1">
          <mxGeometry x="81" y="2160" width="40" height="40" as="geometry" />
        </mxCell>
        <mxCell id="w51F5SMFu8FCbX86xvPS-23" value="&lt;div&gt;&lt;br&gt;&lt;/div&gt;" style="rounded=0;whiteSpace=wrap;html=1;" parent="1" vertex="1">
          <mxGeometry y="-420" width="160" height="170" as="geometry" />
        </mxCell>
        <mxCell id="w51F5SMFu8FCbX86xvPS-24" value="" style="rounded=0;whiteSpace=wrap;html=1;" parent="1" vertex="1">
          <mxGeometry y="-130" width="160" height="130" as="geometry" />
        </mxCell>
        <mxCell id="w51F5SMFu8FCbX86xvPS-26" value="更多" style="text;html=1;align=center;verticalAlign=middle;whiteSpace=wrap;rounded=0;fillColor=#dae8fc;strokeColor=#6c8ebf;" parent="1" vertex="1">
          <mxGeometry x="120" y="-420" width="40" height="20" as="geometry" />
        </mxCell>
        <mxCell id="w51F5SMFu8FCbX86xvPS-29" value="全部已关注的比赛&lt;br&gt;按照时间排列&lt;br&gt;（赛程表）&lt;br&gt;&lt;br&gt;&lt;div&gt;&lt;br&gt;&lt;/div&gt;" style="rounded=0;whiteSpace=wrap;html=1;" parent="1" vertex="1">
          <mxGeometry x="279" y="-460" width="161" height="90" as="geometry" />
        </mxCell>
        <mxCell id="w51F5SMFu8FCbX86xvPS-43" value="&lt;div&gt;&lt;br&gt;&lt;/div&gt;" style="rounded=0;whiteSpace=wrap;html=1;" parent="1" vertex="1">
          <mxGeometry y="140" width="160" height="120" as="geometry" />
        </mxCell>
        <mxCell id="w51F5SMFu8FCbX86xvPS-44" value="编辑" style="text;html=1;align=center;verticalAlign=middle;whiteSpace=wrap;rounded=0;fillColor=#dae8fc;strokeColor=#6c8ebf;" parent="1" vertex="1">
          <mxGeometry x="120" y="140" width="40" height="20" as="geometry" />
        </mxCell>
        <mxCell id="w51F5SMFu8FCbX86xvPS-49" value="&lt;div&gt;&lt;br&gt;&lt;/div&gt;" style="rounded=0;whiteSpace=wrap;html=1;" parent="1" vertex="1">
          <mxGeometry y="650" width="160" height="120" as="geometry" />
        </mxCell>
        <mxCell id="w51F5SMFu8FCbX86xvPS-66" value="教练页面" style="rounded=1;whiteSpace=wrap;html=1;fillColor=#dae8fc;strokeColor=#6c8ebf;" parent="1" vertex="1">
          <mxGeometry x="20" y="210" width="50" height="30" as="geometry" />
        </mxCell>
        <mxCell id="w51F5SMFu8FCbX86xvPS-67" value="裁判页面" style="rounded=1;whiteSpace=wrap;html=1;fillColor=#dae8fc;strokeColor=#6c8ebf;" parent="1" vertex="1">
          <mxGeometry x="90" y="210" width="50" height="30" as="geometry" />
        </mxCell>
        <mxCell id="w51F5SMFu8FCbX86xvPS-68" value="我的" style="rounded=0;whiteSpace=wrap;html=1;fillColor=#ffe6cc;strokeColor=#d79b00;" parent="1" vertex="1">
          <mxGeometry x="121" y="2160" width="40" height="40" as="geometry" />
        </mxCell>
        <mxCell id="w51F5SMFu8FCbX86xvPS-72" value="首页" style="rounded=0;whiteSpace=wrap;html=1;" parent="1" vertex="1">
          <mxGeometry y="770" width="40" height="40" as="geometry" />
        </mxCell>
        <mxCell id="w51F5SMFu8FCbX86xvPS-73" value="球员" style="rounded=0;whiteSpace=wrap;html=1;fillColor=#ffe6cc;strokeColor=#d79b00;" parent="1" vertex="1">
          <mxGeometry x="40" y="770" width="40" height="40" as="geometry" />
        </mxCell>
        <mxCell id="w51F5SMFu8FCbX86xvPS-74" value="管理" style="rounded=0;whiteSpace=wrap;html=1;" parent="1" vertex="1">
          <mxGeometry x="80" y="770" width="40" height="40" as="geometry" />
        </mxCell>
        <mxCell id="w51F5SMFu8FCbX86xvPS-75" value="我的" style="rounded=0;whiteSpace=wrap;html=1;" parent="1" vertex="1">
          <mxGeometry x="120" y="770" width="40" height="40" as="geometry" />
        </mxCell>
        <mxCell id="w51F5SMFu8FCbX86xvPS-79" value="" style="rounded=0;whiteSpace=wrap;html=1;" parent="1" vertex="1">
          <mxGeometry x="-240" y="140" width="160" height="60" as="geometry" />
        </mxCell>
        <mxCell id="w51F5SMFu8FCbX86xvPS-80" value="编辑" style="text;html=1;align=center;verticalAlign=middle;whiteSpace=wrap;rounded=0;fillColor=#dae8fc;strokeColor=#6c8ebf;" parent="1" vertex="1">
          <mxGeometry x="-240" y="140" width="40" height="20" as="geometry" />
        </mxCell>
        <mxCell id="w51F5SMFu8FCbX86xvPS-81" value="" style="rounded=0;whiteSpace=wrap;html=1;" parent="1" vertex="1">
          <mxGeometry x="-240" y="380" width="160" height="150" as="geometry" />
        </mxCell>
        <mxCell id="w51F5SMFu8FCbX86xvPS-83" value="" style="rounded=0;whiteSpace=wrap;html=1;" parent="1" vertex="1">
          <mxGeometry x="399" y="140" width="160" height="60" as="geometry" />
        </mxCell>
        <mxCell id="w51F5SMFu8FCbX86xvPS-84" value="编辑" style="text;html=1;align=center;verticalAlign=middle;whiteSpace=wrap;rounded=0;fillColor=#dae8fc;strokeColor=#6c8ebf;" parent="1" vertex="1">
          <mxGeometry x="520" y="140" width="40" height="20" as="geometry" />
        </mxCell>
        <mxCell id="w51F5SMFu8FCbX86xvPS-85" value="&lt;div&gt;&lt;br&gt;&lt;/div&gt;" style="rounded=0;whiteSpace=wrap;html=1;" parent="1" vertex="1">
          <mxGeometry x="399" y="200" width="160" height="180" as="geometry" />
        </mxCell>
        <mxCell id="w51F5SMFu8FCbX86xvPS-87" value="&lt;div&gt;&lt;br&gt;&lt;/div&gt;" style="rounded=0;whiteSpace=wrap;html=1;" parent="1" vertex="1">
          <mxGeometry x="399" y="380" width="160" height="150" as="geometry" />
        </mxCell>
        <mxCell id="w51F5SMFu8FCbX86xvPS-92" value="统计？或许其他信息" style="rounded=0;whiteSpace=wrap;html=1;" parent="1" vertex="1">
          <mxGeometry x="1" y="960" width="160" height="60" as="geometry" />
        </mxCell>
        <mxCell id="w51F5SMFu8FCbX86xvPS-101" value="&lt;div&gt;&lt;br&gt;&lt;/div&gt;" style="rounded=0;whiteSpace=wrap;html=1;" parent="1" vertex="1">
          <mxGeometry y="-250" width="160" height="120" as="geometry" />
        </mxCell>
        <mxCell id="XkUp8fBl9SVcWvUChdZI-1" value="A01 首页&lt;br&gt;home" style="shape=process;whiteSpace=wrap;html=1;backgroundOutline=1;fillColor=#f8cecc;strokeColor=#b85450;" parent="1" vertex="1">
          <mxGeometry y="-520" width="160" height="60" as="geometry" />
        </mxCell>
        <mxCell id="XkUp8fBl9SVcWvUChdZI-2" value="Pub05&lt;div&gt;matches&lt;/div&gt;" style="shape=process;whiteSpace=wrap;html=1;backgroundOutline=1;fillColor=#fff2cc;strokeColor=#d6b656;" parent="1" vertex="1">
          <mxGeometry x="279" y="-520" width="161" height="60" as="geometry" />
        </mxCell>
        <mxCell id="XkUp8fBl9SVcWvUChdZI-3" value="Pub02&lt;br&gt;player" style="shape=process;whiteSpace=wrap;html=1;backgroundOutline=1;fillColor=#fff2cc;strokeColor=#d6b656;" parent="1" vertex="1">
          <mxGeometry x="279" y="-177.38" width="161" height="60" as="geometry" />
        </mxCell>
        <mxCell id="XkUp8fBl9SVcWvUChdZI-6" value="&lt;h1&gt;总述：&lt;/h1&gt;&lt;p&gt;A类：首页及其页面树&lt;/p&gt;&lt;p&gt;B类：球员及其页面树&lt;/p&gt;&lt;p&gt;C类：管理及其页面树&lt;/p&gt;&lt;p&gt;D类：我的及其页面树&lt;/p&gt;&lt;p&gt;Pub类：公共页面&lt;/p&gt;&lt;p&gt;&lt;br&gt;&lt;/p&gt;&lt;p&gt;&amp;nbsp; &amp;nbsp; &amp;nbsp; &amp;nbsp; &amp;nbsp; &amp;nbsp; &amp;nbsp; &amp;nbsp; &amp;nbsp; &amp;nbsp; &amp;nbsp; &amp;nbsp;&lt;/p&gt;" style="text;html=1;spacing=5;spacingTop=-20;whiteSpace=wrap;overflow=hidden;rounded=0;" parent="1" vertex="1">
          <mxGeometry x="-46" y="-1150" width="190" height="180" as="geometry" />
        </mxCell>
        <mxCell id="XkUp8fBl9SVcWvUChdZI-8" value="" style="endArrow=classic;html=1;rounded=0;entryX=0;entryY=0.5;entryDx=0;entryDy=0;" parent="1" source="w51F5SMFu8FCbX86xvPS-26" target="XkUp8fBl9SVcWvUChdZI-2" edge="1">
          <mxGeometry width="50" height="50" relative="1" as="geometry">
            <mxPoint x="220" y="-420" as="sourcePoint" />
            <mxPoint x="270" y="-470" as="targetPoint" />
          </mxGeometry>
        </mxCell>
        <mxCell id="XkUp8fBl9SVcWvUChdZI-10" value="蓝色按钮" style="rounded=0;whiteSpace=wrap;html=1;fillColor=#dae8fc;strokeColor=#6c8ebf;" parent="1" vertex="1">
          <mxGeometry x="-40" y="-960" width="70" height="40" as="geometry" />
        </mxCell>
        <mxCell id="XkUp8fBl9SVcWvUChdZI-11" value="" style="endArrow=classic;html=1;rounded=0;entryX=0;entryY=0.5;entryDx=0;entryDy=0;" parent="1" source="XkUp8fBl9SVcWvUChdZI-34" target="XkUp8fBl9SVcWvUChdZI-3" edge="1">
          <mxGeometry width="50" height="50" relative="1" as="geometry">
            <mxPoint x="148.5000000000091" y="-219.5" as="sourcePoint" />
            <mxPoint x="240" y="-250" as="targetPoint" />
          </mxGeometry>
        </mxCell>
        <mxCell id="XkUp8fBl9SVcWvUChdZI-12" value="字母+数字&lt;br&gt;name" style="shape=process;whiteSpace=wrap;html=1;backgroundOutline=1;fillColor=#f8cecc;strokeColor=#b85450;" parent="1" vertex="1">
          <mxGeometry x="158" y="-960" width="82" height="40" as="geometry" />
        </mxCell>
        <mxCell id="XkUp8fBl9SVcWvUChdZI-13" value="表示跳转按钮" style="text;html=1;align=center;verticalAlign=middle;whiteSpace=wrap;rounded=0;" parent="1" vertex="1">
          <mxGeometry x="30" y="-960" width="100" height="40" as="geometry" />
        </mxCell>
        <mxCell id="XkUp8fBl9SVcWvUChdZI-14" value="表示页面编号及（项目中的）名称" style="text;html=1;align=center;verticalAlign=middle;whiteSpace=wrap;rounded=0;" parent="1" vertex="1">
          <mxGeometry x="240" y="-960" width="200" height="40" as="geometry" />
        </mxCell>
        <mxCell id="XkUp8fBl9SVcWvUChdZI-16" value="B01 (我的)球员主页&lt;br&gt;profile_player" style="shape=process;whiteSpace=wrap;html=1;backgroundOutline=1;fillColor=#f8cecc;strokeColor=#b85450;" parent="1" vertex="1">
          <mxGeometry y="80" width="160" height="60" as="geometry" />
        </mxCell>
        <mxCell id="XkUp8fBl9SVcWvUChdZI-17" value="B02 球员信息编辑页面&lt;br&gt;profile_player_edit" style="shape=process;whiteSpace=wrap;html=1;backgroundOutline=1;fillColor=#f8cecc;strokeColor=#b85450;" parent="1" vertex="1">
          <mxGeometry x="199" y="80" width="160" height="60" as="geometry" />
        </mxCell>
        <mxCell id="XkUp8fBl9SVcWvUChdZI-18" value="B03 教练页面&lt;br&gt;profile_coach" style="shape=process;whiteSpace=wrap;html=1;backgroundOutline=1;fillColor=#f8cecc;strokeColor=#b85450;" parent="1" vertex="1">
          <mxGeometry x="-240" y="80" width="160" height="60" as="geometry" />
        </mxCell>
        <mxCell id="XkUp8fBl9SVcWvUChdZI-20" value="" style="endArrow=classic;html=1;rounded=0;entryX=1.011;entryY=0.585;entryDx=0;entryDy=0;entryPerimeter=0;" parent="1" source="w51F5SMFu8FCbX86xvPS-66" target="XkUp8fBl9SVcWvUChdZI-18" edge="1">
          <mxGeometry width="50" height="50" relative="1" as="geometry">
            <mxPoint x="-60" y="135" as="sourcePoint" />
            <mxPoint x="-10" y="85" as="targetPoint" />
          </mxGeometry>
        </mxCell>
        <mxCell id="XkUp8fBl9SVcWvUChdZI-21" value="B03 教练页面编辑&lt;br&gt;profile_coach_edit" style="shape=process;whiteSpace=wrap;html=1;backgroundOutline=1;fillColor=#f8cecc;strokeColor=#b85450;" parent="1" vertex="1">
          <mxGeometry x="-440" y="80" width="160" height="60" as="geometry" />
        </mxCell>
        <mxCell id="XkUp8fBl9SVcWvUChdZI-22" value="" style="endArrow=classic;html=1;rounded=0;entryX=1;entryY=0.5;entryDx=0;entryDy=0;" parent="1" source="w51F5SMFu8FCbX86xvPS-80" target="XkUp8fBl9SVcWvUChdZI-21" edge="1">
          <mxGeometry width="50" height="50" relative="1" as="geometry">
            <mxPoint x="-330" y="240" as="sourcePoint" />
            <mxPoint x="-280" y="190" as="targetPoint" />
          </mxGeometry>
        </mxCell>
        <mxCell id="XkUp8fBl9SVcWvUChdZI-23" value="" style="endArrow=classic;html=1;rounded=0;entryX=0;entryY=0.5;entryDx=0;entryDy=0;" parent="1" source="w51F5SMFu8FCbX86xvPS-44" target="XkUp8fBl9SVcWvUChdZI-17" edge="1">
          <mxGeometry width="50" height="50" relative="1" as="geometry">
            <mxPoint x="140" y="210" as="sourcePoint" />
            <mxPoint x="190" y="160" as="targetPoint" />
          </mxGeometry>
        </mxCell>
        <mxCell id="XkUp8fBl9SVcWvUChdZI-24" value="B05 裁判页面&lt;br&gt;profile_referee" style="shape=process;whiteSpace=wrap;html=1;backgroundOutline=1;fillColor=#f8cecc;strokeColor=#b85450;" parent="1" vertex="1">
          <mxGeometry x="399" y="80" width="160" height="60" as="geometry" />
        </mxCell>
        <mxCell id="XkUp8fBl9SVcWvUChdZI-25" value="" style="endArrow=classic;html=1;rounded=0;entryX=0;entryY=0.5;entryDx=0;entryDy=0;" parent="1" source="w51F5SMFu8FCbX86xvPS-67" target="XkUp8fBl9SVcWvUChdZI-24" edge="1">
          <mxGeometry width="50" height="50" relative="1" as="geometry">
            <mxPoint x="240" y="220" as="sourcePoint" />
            <mxPoint x="290" y="170" as="targetPoint" />
          </mxGeometry>
        </mxCell>
        <mxCell id="XkUp8fBl9SVcWvUChdZI-26" value="B06 裁判页面编辑&lt;br&gt;profile_referee_edit" style="shape=process;whiteSpace=wrap;html=1;backgroundOutline=1;fillColor=#f8cecc;strokeColor=#b85450;" parent="1" vertex="1">
          <mxGeometry x="600" y="80" width="160" height="60" as="geometry" />
        </mxCell>
        <mxCell id="XkUp8fBl9SVcWvUChdZI-27" value="" style="endArrow=classic;html=1;rounded=0;entryX=0;entryY=0.5;entryDx=0;entryDy=0;" parent="1" source="w51F5SMFu8FCbX86xvPS-84" target="XkUp8fBl9SVcWvUChdZI-26" edge="1">
          <mxGeometry width="50" height="50" relative="1" as="geometry">
            <mxPoint x="670" y="200" as="sourcePoint" />
            <mxPoint x="720" y="150" as="targetPoint" />
          </mxGeometry>
        </mxCell>
        <mxCell id="XkUp8fBl9SVcWvUChdZI-28" value="&lt;div&gt;&lt;br&gt;&lt;/div&gt;" style="rounded=0;whiteSpace=wrap;html=1;" parent="1" vertex="1">
          <mxGeometry x="-240" y="200" width="160" height="180" as="geometry" />
        </mxCell>
        <mxCell id="XkUp8fBl9SVcWvUChdZI-80" style="edgeStyle=orthogonalEdgeStyle;rounded=0;orthogonalLoop=1;jettySize=auto;html=1;" parent="1" source="XkUp8fBl9SVcWvUChdZI-29" target="XkUp8fBl9SVcWvUChdZI-79" edge="1">
          <mxGeometry relative="1" as="geometry" />
        </mxCell>
        <mxCell id="XkUp8fBl9SVcWvUChdZI-29" value="更多" style="text;html=1;align=center;verticalAlign=middle;whiteSpace=wrap;rounded=0;fillColor=#dae8fc;strokeColor=#6c8ebf;" parent="1" vertex="1">
          <mxGeometry x="-240" y="200" width="40" height="20" as="geometry" />
        </mxCell>
        <mxCell id="XkUp8fBl9SVcWvUChdZI-36" style="edgeStyle=orthogonalEdgeStyle;rounded=0;orthogonalLoop=1;jettySize=auto;html=1;" parent="1" source="XkUp8fBl9SVcWvUChdZI-32" target="XkUp8fBl9SVcWvUChdZI-35" edge="1">
          <mxGeometry relative="1" as="geometry" />
        </mxCell>
        <mxCell id="XkUp8fBl9SVcWvUChdZI-32" value="match_card_small" style="rounded=1;whiteSpace=wrap;html=1;fillColor=#dae8fc;strokeColor=#6c8ebf;" parent="1" vertex="1">
          <mxGeometry x="26.5" y="-290" width="106" height="30" as="geometry" />
        </mxCell>
        <mxCell id="XkUp8fBl9SVcWvUChdZI-37" style="edgeStyle=orthogonalEdgeStyle;rounded=0;orthogonalLoop=1;jettySize=auto;html=1;" parent="1" source="XkUp8fBl9SVcWvUChdZI-33" target="XkUp8fBl9SVcWvUChdZI-35" edge="1">
          <mxGeometry relative="1" as="geometry">
            <Array as="points">
              <mxPoint x="360" y="-320" />
            </Array>
          </mxGeometry>
        </mxCell>
        <mxCell id="XkUp8fBl9SVcWvUChdZI-33" value="match_card_big" style="rounded=1;whiteSpace=wrap;html=1;fillColor=#dae8fc;strokeColor=#6c8ebf;" parent="1" vertex="1">
          <mxGeometry x="299.5" y="-400" width="120" height="30" as="geometry" />
        </mxCell>
        <mxCell id="XkUp8fBl9SVcWvUChdZI-34" value="player_card_small" style="rounded=1;whiteSpace=wrap;html=1;fillColor=#dae8fc;strokeColor=#6c8ebf;" parent="1" vertex="1">
          <mxGeometry x="29" y="-160" width="106" height="25.25" as="geometry" />
        </mxCell>
        <mxCell id="XkUp8fBl9SVcWvUChdZI-35" value="Pub01&lt;br&gt;match" style="shape=process;whiteSpace=wrap;html=1;backgroundOutline=1;fillColor=#fff2cc;strokeColor=#d6b656;" parent="1" vertex="1">
          <mxGeometry x="290" y="-305" width="161" height="60" as="geometry" />
        </mxCell>
        <mxCell id="XkUp8fBl9SVcWvUChdZI-40" style="edgeStyle=orthogonalEdgeStyle;rounded=0;orthogonalLoop=1;jettySize=auto;html=1;" parent="1" source="XkUp8fBl9SVcWvUChdZI-38" target="XkUp8fBl9SVcWvUChdZI-39" edge="1">
          <mxGeometry relative="1" as="geometry" />
        </mxCell>
        <mxCell id="XkUp8fBl9SVcWvUChdZI-38" value="event_card_big" style="rounded=1;whiteSpace=wrap;html=1;fillColor=#dae8fc;strokeColor=#6c8ebf;" parent="1" vertex="1">
          <mxGeometry x="30" y="-40" width="96" height="30" as="geometry" />
        </mxCell>
        <mxCell id="XkUp8fBl9SVcWvUChdZI-39" value="Pub03&lt;br&gt;event" style="shape=process;whiteSpace=wrap;html=1;backgroundOutline=1;fillColor=#fff2cc;strokeColor=#d6b656;" parent="1" vertex="1">
          <mxGeometry x="285.25" y="-95" width="161" height="60" as="geometry" />
        </mxCell>
        <mxCell id="XkUp8fBl9SVcWvUChdZI-87" style="edgeStyle=orthogonalEdgeStyle;rounded=0;orthogonalLoop=1;jettySize=auto;html=1;" parent="1" source="XkUp8fBl9SVcWvUChdZI-41" target="XkUp8fBl9SVcWvUChdZI-86" edge="1">
          <mxGeometry relative="1" as="geometry" />
        </mxCell>
        <mxCell id="XkUp8fBl9SVcWvUChdZI-41" value="team_card_big" style="rounded=1;whiteSpace=wrap;html=1;fillColor=#dae8fc;strokeColor=#6c8ebf;" parent="1" vertex="1">
          <mxGeometry x="-219" y="490" width="120" height="30" as="geometry" />
        </mxCell>
        <mxCell id="XkUp8fBl9SVcWvUChdZI-85" style="edgeStyle=orthogonalEdgeStyle;rounded=0;orthogonalLoop=1;jettySize=auto;html=1;" parent="1" source="XkUp8fBl9SVcWvUChdZI-43" target="XkUp8fBl9SVcWvUChdZI-83" edge="1">
          <mxGeometry relative="1" as="geometry" />
        </mxCell>
        <mxCell id="XkUp8fBl9SVcWvUChdZI-43" value="match_card_small" style="rounded=1;whiteSpace=wrap;html=1;fillColor=#dae8fc;strokeColor=#6c8ebf;" parent="1" vertex="1">
          <mxGeometry x="-220" y="335" width="120" height="30" as="geometry" />
        </mxCell>
        <mxCell id="XkUp8fBl9SVcWvUChdZI-44" value="Pub01 比赛详情页&lt;br&gt;match" style="shape=process;whiteSpace=wrap;html=1;backgroundOutline=1;fillColor=#fff2cc;strokeColor=#d6b656;" parent="1" vertex="1">
          <mxGeometry x="639" y="-840" width="161" height="60" as="geometry" />
        </mxCell>
        <mxCell id="XkUp8fBl9SVcWvUChdZI-45" value="Pub02 球员详情页&lt;br&gt;player" style="shape=process;whiteSpace=wrap;html=1;backgroundOutline=1;fillColor=#fff2cc;strokeColor=#d6b656;" parent="1" vertex="1">
          <mxGeometry x="639" y="-780" width="161" height="60" as="geometry" />
        </mxCell>
        <mxCell id="XkUp8fBl9SVcWvUChdZI-46" value="Pub03 赛事详情页&lt;br&gt;event" style="shape=process;whiteSpace=wrap;html=1;backgroundOutline=1;fillColor=#fff2cc;strokeColor=#d6b656;" parent="1" vertex="1">
          <mxGeometry x="639" y="-720" width="161" height="60" as="geometry" />
        </mxCell>
        <mxCell id="XkUp8fBl9SVcWvUChdZI-47" value="Pub05 比赛列表页&lt;div&gt;matches&lt;/div&gt;" style="shape=process;whiteSpace=wrap;html=1;backgroundOutline=1;fillColor=#fff2cc;strokeColor=#d6b656;" parent="1" vertex="1">
          <mxGeometry x="639" y="-600" width="161" height="60" as="geometry" />
        </mxCell>
        <mxCell id="XkUp8fBl9SVcWvUChdZI-48" value="Pub04 球队详情页&lt;br&gt;&lt;span style=&quot;background-color: initial;&quot;&gt;team&lt;/span&gt;" style="shape=process;whiteSpace=wrap;html=1;backgroundOutline=1;fillColor=#fff2cc;strokeColor=#d6b656;" parent="1" vertex="1">
          <mxGeometry x="639" y="-660" width="161" height="60" as="geometry" />
        </mxCell>
        <mxCell id="XkUp8fBl9SVcWvUChdZI-49" value="Pub06 球员列表页&lt;div&gt;players&lt;/div&gt;" style="shape=process;whiteSpace=wrap;html=1;backgroundOutline=1;fillColor=#fff2cc;strokeColor=#d6b656;" parent="1" vertex="1">
          <mxGeometry x="639" y="-540" width="161" height="60" as="geometry" />
        </mxCell>
        <mxCell id="XkUp8fBl9SVcWvUChdZI-50" value="Pub07 赛事列表页&lt;div&gt;events&lt;/div&gt;" style="shape=process;whiteSpace=wrap;html=1;backgroundOutline=1;fillColor=#fff2cc;strokeColor=#d6b656;" parent="1" vertex="1">
          <mxGeometry x="639" y="-480" width="161" height="60" as="geometry" />
        </mxCell>
        <mxCell id="XkUp8fBl9SVcWvUChdZI-51" value="Pub08 球队列表&lt;span style=&quot;background-color: initial;&quot;&gt;页&lt;/span&gt;&lt;br&gt;&lt;div&gt;teams&lt;/div&gt;" style="shape=process;whiteSpace=wrap;html=1;backgroundOutline=1;fillColor=#fff2cc;strokeColor=#d6b656;" parent="1" vertex="1">
          <mxGeometry x="639" y="-420" width="161" height="60" as="geometry" />
        </mxCell>
        <mxCell id="w51F5SMFu8FCbX86xvPS-47" value="" style="rounded=0;whiteSpace=wrap;html=1;" parent="1" vertex="1">
          <mxGeometry y="480" width="160" height="170" as="geometry" />
        </mxCell>
        <mxCell id="XkUp8fBl9SVcWvUChdZI-69" style="edgeStyle=orthogonalEdgeStyle;rounded=0;orthogonalLoop=1;jettySize=auto;html=1;" parent="1" source="w51F5SMFu8FCbX86xvPS-50" target="XkUp8fBl9SVcWvUChdZI-68" edge="1">
          <mxGeometry relative="1" as="geometry" />
        </mxCell>
        <mxCell id="w51F5SMFu8FCbX86xvPS-50" value="更多" style="text;html=1;align=center;verticalAlign=middle;whiteSpace=wrap;rounded=0;fillColor=#dae8fc;strokeColor=#6c8ebf;" parent="1" vertex="1">
          <mxGeometry x="120" y="480" width="40" height="20" as="geometry" />
        </mxCell>
        <mxCell id="XkUp8fBl9SVcWvUChdZI-59" value="Pub08&lt;br&gt;teams" style="shape=process;whiteSpace=wrap;html=1;backgroundOutline=1;fillColor=#fff2cc;strokeColor=#d6b656;" parent="1" vertex="1">
          <mxGeometry x="200" y="240" width="160" height="60" as="geometry" />
        </mxCell>
        <mxCell id="XkUp8fBl9SVcWvUChdZI-60" value="" style="endArrow=classic;html=1;rounded=0;" parent="1" source="w51F5SMFu8FCbX86xvPS-48" target="XkUp8fBl9SVcWvUChdZI-59" edge="1">
          <mxGeometry width="50" height="50" relative="1" as="geometry">
            <mxPoint x="240" y="400" as="sourcePoint" />
            <mxPoint x="290" y="350" as="targetPoint" />
          </mxGeometry>
        </mxCell>
        <mxCell id="XkUp8fBl9SVcWvUChdZI-61" value="" style="rounded=0;whiteSpace=wrap;html=1;" parent="1" vertex="1">
          <mxGeometry x="200" y="300" width="160" height="60" as="geometry" />
        </mxCell>
        <mxCell id="XkUp8fBl9SVcWvUChdZI-66" style="edgeStyle=orthogonalEdgeStyle;rounded=0;orthogonalLoop=1;jettySize=auto;html=1;" parent="1" source="XkUp8fBl9SVcWvUChdZI-62" target="XkUp8fBl9SVcWvUChdZI-63" edge="1">
          <mxGeometry relative="1" as="geometry" />
        </mxCell>
        <mxCell id="XkUp8fBl9SVcWvUChdZI-62" value="team_card_big" style="rounded=1;whiteSpace=wrap;html=1;fillColor=#dae8fc;strokeColor=#6c8ebf;" parent="1" vertex="1">
          <mxGeometry x="219" y="317.5" width="120" height="25" as="geometry" />
        </mxCell>
        <mxCell id="w51F5SMFu8FCbX86xvPS-51" value="我的球队&lt;br&gt;（横向排列、可滑动）&lt;br&gt;&lt;br&gt;&lt;div&gt;&lt;br/&gt;&lt;/div&gt;" style="rounded=0;whiteSpace=wrap;html=1;" parent="1" vertex="1">
          <mxGeometry y="260" width="160" height="220" as="geometry" />
        </mxCell>
        <mxCell id="w51F5SMFu8FCbX86xvPS-48" value="更多" style="text;html=1;align=center;verticalAlign=middle;whiteSpace=wrap;rounded=0;fillColor=#dae8fc;strokeColor=#6c8ebf;" parent="1" vertex="1">
          <mxGeometry x="120" y="260" width="40" height="20" as="geometry" />
        </mxCell>
        <mxCell id="XkUp8fBl9SVcWvUChdZI-57" value="team_card_small" style="rounded=1;whiteSpace=wrap;html=1;fillColor=#dae8fc;strokeColor=#6c8ebf;" parent="1" vertex="1">
          <mxGeometry x="20" y="407.5" width="120" height="25" as="geometry" />
        </mxCell>
        <mxCell id="XkUp8fBl9SVcWvUChdZI-63" value="Pub04&lt;br&gt;team" style="shape=process;whiteSpace=wrap;html=1;backgroundOutline=1;fillColor=#fff2cc;strokeColor=#d6b656;" parent="1" vertex="1">
          <mxGeometry x="200" y="390" width="160" height="60" as="geometry" />
        </mxCell>
        <mxCell id="XkUp8fBl9SVcWvUChdZI-64" value="" style="endArrow=classic;html=1;rounded=0;exitX=1;exitY=0.5;exitDx=0;exitDy=0;entryX=0;entryY=0.5;entryDx=0;entryDy=0;" parent="1" source="XkUp8fBl9SVcWvUChdZI-57" target="XkUp8fBl9SVcWvUChdZI-63" edge="1">
          <mxGeometry width="50" height="50" relative="1" as="geometry">
            <mxPoint x="230" y="560" as="sourcePoint" />
            <mxPoint x="280" y="510" as="targetPoint" />
          </mxGeometry>
        </mxCell>
        <mxCell id="XkUp8fBl9SVcWvUChdZI-74" style="edgeStyle=orthogonalEdgeStyle;rounded=0;orthogonalLoop=1;jettySize=auto;html=1;" parent="1" source="XkUp8fBl9SVcWvUChdZI-67" target="XkUp8fBl9SVcWvUChdZI-72" edge="1">
          <mxGeometry relative="1" as="geometry" />
        </mxCell>
        <mxCell id="XkUp8fBl9SVcWvUChdZI-67" value="match_card_small" style="rounded=1;whiteSpace=wrap;html=1;fillColor=#dae8fc;strokeColor=#6c8ebf;" parent="1" vertex="1">
          <mxGeometry x="24" y="617.5" width="120" height="25" as="geometry" />
        </mxCell>
        <mxCell id="XkUp8fBl9SVcWvUChdZI-68" value="Pub05&lt;br&gt;matches" style="shape=process;whiteSpace=wrap;html=1;backgroundOutline=1;fillColor=#fff2cc;strokeColor=#d6b656;" parent="1" vertex="1">
          <mxGeometry x="200" y="460" width="160" height="60" as="geometry" />
        </mxCell>
        <mxCell id="XkUp8fBl9SVcWvUChdZI-70" value="" style="rounded=0;whiteSpace=wrap;html=1;" parent="1" vertex="1">
          <mxGeometry x="200" y="520" width="160" height="60" as="geometry" />
        </mxCell>
        <mxCell id="XkUp8fBl9SVcWvUChdZI-73" style="edgeStyle=orthogonalEdgeStyle;rounded=0;orthogonalLoop=1;jettySize=auto;html=1;" parent="1" source="XkUp8fBl9SVcWvUChdZI-71" target="XkUp8fBl9SVcWvUChdZI-72" edge="1">
          <mxGeometry relative="1" as="geometry" />
        </mxCell>
        <mxCell id="XkUp8fBl9SVcWvUChdZI-71" value="match_card_big" style="rounded=1;whiteSpace=wrap;html=1;fillColor=#dae8fc;strokeColor=#6c8ebf;" parent="1" vertex="1">
          <mxGeometry x="220" y="537.5" width="120" height="25" as="geometry" />
        </mxCell>
        <mxCell id="XkUp8fBl9SVcWvUChdZI-72" value="Pub01&lt;br&gt;match" style="shape=process;whiteSpace=wrap;html=1;backgroundOutline=1;fillColor=#fff2cc;strokeColor=#d6b656;" parent="1" vertex="1">
          <mxGeometry x="200" y="600" width="160" height="60" as="geometry" />
        </mxCell>
        <mxCell id="XkUp8fBl9SVcWvUChdZI-78" style="edgeStyle=orthogonalEdgeStyle;rounded=0;orthogonalLoop=1;jettySize=auto;html=1;" parent="1" source="XkUp8fBl9SVcWvUChdZI-75" target="XkUp8fBl9SVcWvUChdZI-77" edge="1">
          <mxGeometry relative="1" as="geometry" />
        </mxCell>
        <mxCell id="XkUp8fBl9SVcWvUChdZI-75" value="event_card_big" style="rounded=1;whiteSpace=wrap;html=1;fillColor=#dae8fc;strokeColor=#6c8ebf;" parent="1" vertex="1">
          <mxGeometry x="24" y="730" width="120" height="25" as="geometry" />
        </mxCell>
        <mxCell id="XkUp8fBl9SVcWvUChdZI-77" value="Pub03&lt;br&gt;event" style="shape=process;whiteSpace=wrap;html=1;backgroundOutline=1;fillColor=#fff2cc;strokeColor=#d6b656;" parent="1" vertex="1">
          <mxGeometry x="199" y="712.5" width="160" height="60" as="geometry" />
        </mxCell>
        <mxCell id="XkUp8fBl9SVcWvUChdZI-79" value="Pub05&lt;br&gt;matches" style="shape=process;whiteSpace=wrap;html=1;backgroundOutline=1;fillColor=#fff2cc;strokeColor=#d6b656;" parent="1" vertex="1">
          <mxGeometry x="-440" y="180" width="160" height="60" as="geometry" />
        </mxCell>
        <mxCell id="XkUp8fBl9SVcWvUChdZI-81" value="" style="rounded=0;whiteSpace=wrap;html=1;" parent="1" vertex="1">
          <mxGeometry x="-440" y="240" width="160" height="60" as="geometry" />
        </mxCell>
        <mxCell id="XkUp8fBl9SVcWvUChdZI-84" style="edgeStyle=orthogonalEdgeStyle;rounded=0;orthogonalLoop=1;jettySize=auto;html=1;" parent="1" source="XkUp8fBl9SVcWvUChdZI-82" target="XkUp8fBl9SVcWvUChdZI-83" edge="1">
          <mxGeometry relative="1" as="geometry" />
        </mxCell>
        <mxCell id="XkUp8fBl9SVcWvUChdZI-82" value="match_card_big" style="rounded=1;whiteSpace=wrap;html=1;fillColor=#dae8fc;strokeColor=#6c8ebf;" parent="1" vertex="1">
          <mxGeometry x="-420" y="260" width="120" height="30" as="geometry" />
        </mxCell>
        <mxCell id="XkUp8fBl9SVcWvUChdZI-83" value="Pub01&lt;br&gt;match" style="shape=process;whiteSpace=wrap;html=1;backgroundOutline=1;fillColor=#fff2cc;strokeColor=#d6b656;" parent="1" vertex="1">
          <mxGeometry x="-440" y="320" width="160" height="60" as="geometry" />
        </mxCell>
        <mxCell id="XkUp8fBl9SVcWvUChdZI-86" value="Pub04&lt;br&gt;team" style="shape=process;whiteSpace=wrap;html=1;backgroundOutline=1;fillColor=#fff2cc;strokeColor=#d6b656;" parent="1" vertex="1">
          <mxGeometry x="-440" y="425" width="160" height="60" as="geometry" />
        </mxCell>
        <mxCell id="XkUp8fBl9SVcWvUChdZI-108" style="edgeStyle=orthogonalEdgeStyle;rounded=0;orthogonalLoop=1;jettySize=auto;html=1;" parent="1" source="XkUp8fBl9SVcWvUChdZI-88" target="XkUp8fBl9SVcWvUChdZI-107" edge="1">
          <mxGeometry relative="1" as="geometry" />
        </mxCell>
        <mxCell id="XkUp8fBl9SVcWvUChdZI-88" value="event_card_big" style="rounded=1;whiteSpace=wrap;html=1;fillColor=#dae8fc;strokeColor=#6c8ebf;" parent="1" vertex="1">
          <mxGeometry x="420" y="492.5" width="120" height="25" as="geometry" />
        </mxCell>
        <mxCell id="XkUp8fBl9SVcWvUChdZI-105" style="edgeStyle=orthogonalEdgeStyle;rounded=0;orthogonalLoop=1;jettySize=auto;html=1;" parent="1" source="XkUp8fBl9SVcWvUChdZI-89" target="XkUp8fBl9SVcWvUChdZI-104" edge="1">
          <mxGeometry relative="1" as="geometry" />
        </mxCell>
        <mxCell id="XkUp8fBl9SVcWvUChdZI-89" value="match_card_small" style="rounded=1;whiteSpace=wrap;html=1;fillColor=#dae8fc;strokeColor=#6c8ebf;" parent="1" vertex="1">
          <mxGeometry x="420" y="337.5" width="120" height="25" as="geometry" />
        </mxCell>
        <mxCell id="XkUp8fBl9SVcWvUChdZI-94" style="edgeStyle=orthogonalEdgeStyle;rounded=0;orthogonalLoop=1;jettySize=auto;html=1;" parent="1" source="XkUp8fBl9SVcWvUChdZI-90" target="XkUp8fBl9SVcWvUChdZI-100" edge="1">
          <mxGeometry relative="1" as="geometry">
            <mxPoint x="600" y="210" as="targetPoint" />
          </mxGeometry>
        </mxCell>
        <mxCell id="XkUp8fBl9SVcWvUChdZI-90" value="更多" style="text;html=1;align=center;verticalAlign=middle;whiteSpace=wrap;rounded=0;fillColor=#dae8fc;strokeColor=#6c8ebf;" parent="1" vertex="1">
          <mxGeometry x="519" y="200" width="40" height="20" as="geometry" />
        </mxCell>
        <mxCell id="XkUp8fBl9SVcWvUChdZI-100" value="Pub05&lt;br&gt;matches" style="shape=process;whiteSpace=wrap;html=1;backgroundOutline=1;fillColor=#fff2cc;strokeColor=#d6b656;" parent="1" vertex="1">
          <mxGeometry x="600" y="180" width="160" height="60" as="geometry" />
        </mxCell>
        <mxCell id="XkUp8fBl9SVcWvUChdZI-101" value="" style="rounded=0;whiteSpace=wrap;html=1;" parent="1" vertex="1">
          <mxGeometry x="600" y="240" width="160" height="60" as="geometry" />
        </mxCell>
        <mxCell id="XkUp8fBl9SVcWvUChdZI-102" style="edgeStyle=orthogonalEdgeStyle;rounded=0;orthogonalLoop=1;jettySize=auto;html=1;" parent="1" source="XkUp8fBl9SVcWvUChdZI-103" target="XkUp8fBl9SVcWvUChdZI-104" edge="1">
          <mxGeometry relative="1" as="geometry" />
        </mxCell>
        <mxCell id="XkUp8fBl9SVcWvUChdZI-103" value="match_card_big" style="rounded=1;whiteSpace=wrap;html=1;fillColor=#dae8fc;strokeColor=#6c8ebf;" parent="1" vertex="1">
          <mxGeometry x="620" y="257.5" width="120" height="25" as="geometry" />
        </mxCell>
        <mxCell id="XkUp8fBl9SVcWvUChdZI-104" value="Pub01&lt;br&gt;match" style="shape=process;whiteSpace=wrap;html=1;backgroundOutline=1;fillColor=#fff2cc;strokeColor=#d6b656;" parent="1" vertex="1">
          <mxGeometry x="600" y="320" width="160" height="60" as="geometry" />
        </mxCell>
        <mxCell id="XkUp8fBl9SVcWvUChdZI-107" value="Pub03&lt;br&gt;event" style="shape=process;whiteSpace=wrap;html=1;backgroundOutline=1;fillColor=#fff2cc;strokeColor=#d6b656;" parent="1" vertex="1">
          <mxGeometry x="610" y="475" width="160" height="60" as="geometry" />
        </mxCell>
        <mxCell id="XkUp8fBl9SVcWvUChdZI-109" value="C01 管理主页&lt;br&gt;management" style="shape=process;whiteSpace=wrap;html=1;backgroundOutline=1;fillColor=#f8cecc;strokeColor=#b85450;" parent="1" vertex="1">
          <mxGeometry x="1" y="900" width="160" height="60" as="geometry" />
        </mxCell>
        <mxCell id="XkUp8fBl9SVcWvUChdZI-113" value="C03&lt;br&gt;team_more" style="shape=process;whiteSpace=wrap;html=1;backgroundOutline=1;fillColor=#f8cecc;strokeColor=#b85450;" parent="1" vertex="1">
          <mxGeometry x="201" y="1000" width="160" height="60" as="geometry" />
        </mxCell>
        <mxCell id="XkUp8fBl9SVcWvUChdZI-114" value="" style="endArrow=classic;html=1;rounded=0;" parent="1" source="XkUp8fBl9SVcWvUChdZI-119" target="XkUp8fBl9SVcWvUChdZI-113" edge="1">
          <mxGeometry width="50" height="50" relative="1" as="geometry">
            <mxPoint x="241" y="1160" as="sourcePoint" />
            <mxPoint x="291" y="1110" as="targetPoint" />
          </mxGeometry>
        </mxCell>
        <mxCell id="XkUp8fBl9SVcWvUChdZI-116" style="edgeStyle=orthogonalEdgeStyle;rounded=0;orthogonalLoop=1;jettySize=auto;html=1;" parent="1" source="XkUp8fBl9SVcWvUChdZI-117" target="XkUp8fBl9SVcWvUChdZI-121" edge="1">
          <mxGeometry relative="1" as="geometry" />
        </mxCell>
        <mxCell id="XkUp8fBl9SVcWvUChdZI-117" value="team_card_big" style="rounded=1;whiteSpace=wrap;html=1;fillColor=#dae8fc;strokeColor=#6c8ebf;" parent="1" vertex="1">
          <mxGeometry x="220" y="1105" width="120" height="25" as="geometry" />
        </mxCell>
        <mxCell id="XkUp8fBl9SVcWvUChdZI-118" value="管理的球队&lt;br style=&quot;border-color: var(--border-color);&quot;&gt;（横向排列、可滑动）&lt;br&gt;&lt;div&gt;&lt;br&gt;&lt;/div&gt;&lt;div&gt;&lt;br&gt;&lt;/div&gt;&lt;div&gt;&lt;br&gt;&lt;/div&gt;" style="rounded=0;whiteSpace=wrap;html=1;" parent="1" vertex="1">
          <mxGeometry x="1" y="1020" width="160" height="240" as="geometry" />
        </mxCell>
        <mxCell id="XkUp8fBl9SVcWvUChdZI-119" value="更多" style="text;html=1;align=center;verticalAlign=middle;whiteSpace=wrap;rounded=0;fillColor=#dae8fc;strokeColor=#6c8ebf;" parent="1" vertex="1">
          <mxGeometry x="121" y="1020" width="40" height="20" as="geometry" />
        </mxCell>
        <mxCell id="XkUp8fBl9SVcWvUChdZI-120" value="team_card_small" style="rounded=1;whiteSpace=wrap;html=1;fillColor=#dae8fc;strokeColor=#6c8ebf;" parent="1" vertex="1">
          <mxGeometry x="21" y="1177.5" width="120" height="25" as="geometry" />
        </mxCell>
        <mxCell id="doHgU2Z-sekiHhcS_HEN-2" value="" style="edgeStyle=orthogonalEdgeStyle;rounded=0;orthogonalLoop=1;jettySize=auto;html=1;" parent="1" source="XkUp8fBl9SVcWvUChdZI-121" target="doHgU2Z-sekiHhcS_HEN-1" edge="1">
          <mxGeometry relative="1" as="geometry" />
        </mxCell>
        <mxCell id="XkUp8fBl9SVcWvUChdZI-121" value="C02&lt;br&gt;team_edit" style="shape=process;whiteSpace=wrap;html=1;backgroundOutline=1;fillColor=#f8cecc;strokeColor=#b85450;" parent="1" vertex="1">
          <mxGeometry x="201" y="1160" width="160" height="60" as="geometry" />
        </mxCell>
        <mxCell id="XkUp8fBl9SVcWvUChdZI-122" value="" style="endArrow=classic;html=1;rounded=0;exitX=1;exitY=0.5;exitDx=0;exitDy=0;entryX=0;entryY=0.5;entryDx=0;entryDy=0;" parent="1" source="XkUp8fBl9SVcWvUChdZI-120" target="XkUp8fBl9SVcWvUChdZI-121" edge="1">
          <mxGeometry width="50" height="50" relative="1" as="geometry">
            <mxPoint x="231" y="1320" as="sourcePoint" />
            <mxPoint x="281" y="1270" as="targetPoint" />
          </mxGeometry>
        </mxCell>
        <mxCell id="XkUp8fBl9SVcWvUChdZI-123" value="&lt;div&gt;&lt;br&gt;&lt;/div&gt;" style="rounded=0;whiteSpace=wrap;html=1;" parent="1" vertex="1">
          <mxGeometry y="1260" width="160" height="200" as="geometry" />
        </mxCell>
        <mxCell id="XkUp8fBl9SVcWvUChdZI-124" style="edgeStyle=orthogonalEdgeStyle;rounded=0;orthogonalLoop=1;jettySize=auto;html=1;" parent="1" source="XkUp8fBl9SVcWvUChdZI-125" target="XkUp8fBl9SVcWvUChdZI-128" edge="1">
          <mxGeometry relative="1" as="geometry" />
        </mxCell>
        <mxCell id="XkUp8fBl9SVcWvUChdZI-125" value="更多" style="text;html=1;align=center;verticalAlign=middle;whiteSpace=wrap;rounded=0;fillColor=#dae8fc;strokeColor=#6c8ebf;" parent="1" vertex="1">
          <mxGeometry x="120" y="1260" width="40" height="20" as="geometry" />
        </mxCell>
        <mxCell id="XkUp8fBl9SVcWvUChdZI-137" style="edgeStyle=orthogonalEdgeStyle;rounded=0;orthogonalLoop=1;jettySize=auto;html=1;" parent="1" source="XkUp8fBl9SVcWvUChdZI-127" target="XkUp8fBl9SVcWvUChdZI-132" edge="1">
          <mxGeometry relative="1" as="geometry" />
        </mxCell>
        <mxCell id="XkUp8fBl9SVcWvUChdZI-127" value="match_card_small" style="rounded=1;whiteSpace=wrap;html=1;fillColor=#dae8fc;strokeColor=#6c8ebf;" parent="1" vertex="1">
          <mxGeometry x="25" y="1417.5" width="120" height="25" as="geometry" />
        </mxCell>
        <mxCell id="XkUp8fBl9SVcWvUChdZI-128" value="C06&lt;br&gt;match_more" style="shape=process;whiteSpace=wrap;html=1;backgroundOutline=1;fillColor=#f8cecc;strokeColor=#b85450;" parent="1" vertex="1">
          <mxGeometry x="200" y="1240" width="160" height="60" as="geometry" />
        </mxCell>
        <mxCell id="XkUp8fBl9SVcWvUChdZI-129" value="" style="rounded=0;whiteSpace=wrap;html=1;" parent="1" vertex="1">
          <mxGeometry x="200" y="1300" width="160" height="80" as="geometry" />
        </mxCell>
        <mxCell id="XkUp8fBl9SVcWvUChdZI-130" style="edgeStyle=orthogonalEdgeStyle;rounded=0;orthogonalLoop=1;jettySize=auto;html=1;" parent="1" source="XkUp8fBl9SVcWvUChdZI-131" target="XkUp8fBl9SVcWvUChdZI-132" edge="1">
          <mxGeometry relative="1" as="geometry" />
        </mxCell>
        <mxCell id="XkUp8fBl9SVcWvUChdZI-131" value="match_card_big" style="rounded=1;whiteSpace=wrap;html=1;fillColor=#dae8fc;strokeColor=#6c8ebf;" parent="1" vertex="1">
          <mxGeometry x="220" y="1347.5" width="120" height="25" as="geometry" />
        </mxCell>
        <mxCell id="doHgU2Z-sekiHhcS_HEN-14" value="" style="edgeStyle=orthogonalEdgeStyle;rounded=0;orthogonalLoop=1;jettySize=auto;html=1;" parent="1" source="XkUp8fBl9SVcWvUChdZI-132" target="doHgU2Z-sekiHhcS_HEN-13" edge="1">
          <mxGeometry relative="1" as="geometry" />
        </mxCell>
        <mxCell id="XkUp8fBl9SVcWvUChdZI-132" value="C05&lt;br&gt;match_edit" style="shape=process;whiteSpace=wrap;html=1;backgroundOutline=1;fillColor=#f8cecc;strokeColor=#b85450;" parent="1" vertex="1">
          <mxGeometry x="200" y="1400" width="160" height="60" as="geometry" />
        </mxCell>
        <mxCell id="XkUp8fBl9SVcWvUChdZI-133" value="&lt;div&gt;&lt;br&gt;&lt;/div&gt;" style="rounded=0;whiteSpace=wrap;html=1;" parent="1" vertex="1">
          <mxGeometry y="1457.5" width="160" height="202.5" as="geometry" />
        </mxCell>
        <mxCell id="XkUp8fBl9SVcWvUChdZI-134" style="edgeStyle=orthogonalEdgeStyle;rounded=0;orthogonalLoop=1;jettySize=auto;html=1;" parent="1" source="XkUp8fBl9SVcWvUChdZI-135" target="XkUp8fBl9SVcWvUChdZI-136" edge="1">
          <mxGeometry relative="1" as="geometry" />
        </mxCell>
        <mxCell id="XkUp8fBl9SVcWvUChdZI-135" value="event_card_big" style="rounded=1;whiteSpace=wrap;html=1;fillColor=#dae8fc;strokeColor=#6c8ebf;" parent="1" vertex="1">
          <mxGeometry x="25" y="1557.5" width="120" height="25" as="geometry" />
        </mxCell>
        <mxCell id="XkUp8fBl9SVcWvUChdZI-136" value="C08&lt;br&gt;event_edit" style="shape=process;whiteSpace=wrap;html=1;backgroundOutline=1;fillColor=#f8cecc;strokeColor=#b85450;" parent="1" vertex="1">
          <mxGeometry x="-190" y="1540" width="160" height="60" as="geometry" />
        </mxCell>
        <mxCell id="XkUp8fBl9SVcWvUChdZI-138" value="" style="group" parent="1" vertex="1" connectable="0">
          <mxGeometry y="1660" width="160" height="40" as="geometry" />
        </mxCell>
        <mxCell id="w51F5SMFu8FCbX86xvPS-19" value="首页" style="rounded=0;whiteSpace=wrap;html=1;" parent="XkUp8fBl9SVcWvUChdZI-138" vertex="1">
          <mxGeometry width="40" height="40" as="geometry" />
        </mxCell>
        <mxCell id="w51F5SMFu8FCbX86xvPS-20" value="球员" style="rounded=0;whiteSpace=wrap;html=1;" parent="XkUp8fBl9SVcWvUChdZI-138" vertex="1">
          <mxGeometry x="40" width="40" height="40" as="geometry" />
        </mxCell>
        <mxCell id="w51F5SMFu8FCbX86xvPS-21" value="管理" style="rounded=0;whiteSpace=wrap;html=1;fillColor=#ffe6cc;strokeColor=#d79b00;" parent="XkUp8fBl9SVcWvUChdZI-138" vertex="1">
          <mxGeometry x="80" width="40" height="40" as="geometry" />
        </mxCell>
        <mxCell id="w51F5SMFu8FCbX86xvPS-22" value="我的" style="rounded=0;whiteSpace=wrap;html=1;" parent="XkUp8fBl9SVcWvUChdZI-138" vertex="1">
          <mxGeometry x="120" width="40" height="40" as="geometry" />
        </mxCell>
        <mxCell id="XkUp8fBl9SVcWvUChdZI-139" value="new team" style="rounded=1;whiteSpace=wrap;html=1;fillColor=#dae8fc;strokeColor=#6c8ebf;" parent="1" vertex="1">
          <mxGeometry x="219" y="1070" width="120" height="25" as="geometry" />
        </mxCell>
        <mxCell id="XkUp8fBl9SVcWvUChdZI-142" style="edgeStyle=orthogonalEdgeStyle;rounded=0;orthogonalLoop=1;jettySize=auto;html=1;" parent="1" source="XkUp8fBl9SVcWvUChdZI-139" target="XkUp8fBl9SVcWvUChdZI-140" edge="1">
          <mxGeometry relative="1" as="geometry">
            <mxPoint x="401" y="1160" as="targetPoint" />
          </mxGeometry>
        </mxCell>
        <mxCell id="doHgU2Z-sekiHhcS_HEN-15" value="" style="edgeStyle=orthogonalEdgeStyle;rounded=0;orthogonalLoop=1;jettySize=auto;html=1;" parent="1" source="XkUp8fBl9SVcWvUChdZI-140" target="doHgU2Z-sekiHhcS_HEN-1" edge="1">
          <mxGeometry relative="1" as="geometry" />
        </mxCell>
        <mxCell id="XkUp8fBl9SVcWvUChdZI-140" value="C04&lt;br&gt;team_new" style="shape=process;whiteSpace=wrap;html=1;backgroundOutline=1;fillColor=#f8cecc;strokeColor=#b85450;" parent="1" vertex="1">
          <mxGeometry x="400" y="1052.5" width="160" height="60" as="geometry" />
        </mxCell>
        <mxCell id="XkUp8fBl9SVcWvUChdZI-144" style="edgeStyle=orthogonalEdgeStyle;rounded=0;orthogonalLoop=1;jettySize=auto;html=1;" parent="1" source="XkUp8fBl9SVcWvUChdZI-143" target="XkUp8fBl9SVcWvUChdZI-145" edge="1">
          <mxGeometry relative="1" as="geometry">
            <mxPoint x="421" y="1322.4999999999995" as="targetPoint" />
          </mxGeometry>
        </mxCell>
        <mxCell id="XkUp8fBl9SVcWvUChdZI-143" value="new match (友谊赛)" style="rounded=1;whiteSpace=wrap;html=1;fillColor=#dae8fc;strokeColor=#6c8ebf;" parent="1" vertex="1">
          <mxGeometry x="219" y="1310" width="120" height="25" as="geometry" />
        </mxCell>
        <mxCell id="XkUp8fBl9SVcWvUChdZI-145" value="C07&lt;br&gt;match_new" style="shape=process;whiteSpace=wrap;html=1;backgroundOutline=1;fillColor=#f8cecc;strokeColor=#b85450;" parent="1" vertex="1">
          <mxGeometry x="400" y="1292.5" width="160" height="60" as="geometry" />
        </mxCell>
        <mxCell id="XkUp8fBl9SVcWvUChdZI-146" value="C09&lt;br&gt;event_new" style="shape=process;whiteSpace=wrap;html=1;backgroundOutline=1;fillColor=#f8cecc;strokeColor=#b85450;" parent="1" vertex="1">
          <mxGeometry x="-190" y="1646" width="160" height="60" as="geometry" />
        </mxCell>
        <mxCell id="XkUp8fBl9SVcWvUChdZI-148" style="edgeStyle=orthogonalEdgeStyle;rounded=0;orthogonalLoop=1;jettySize=auto;html=1;entryX=0.5;entryY=0;entryDx=0;entryDy=0;" parent="1" source="XkUp8fBl9SVcWvUChdZI-147" target="XkUp8fBl9SVcWvUChdZI-146" edge="1">
          <mxGeometry relative="1" as="geometry">
            <Array as="points">
              <mxPoint x="-110" y="1623" />
            </Array>
          </mxGeometry>
        </mxCell>
        <mxCell id="XkUp8fBl9SVcWvUChdZI-147" value="new event" style="rounded=1;whiteSpace=wrap;html=1;fillColor=#dae8fc;strokeColor=#6c8ebf;" parent="1" vertex="1">
          <mxGeometry x="25" y="1610" width="120" height="25" as="geometry" />
        </mxCell>
        <mxCell id="XkUp8fBl9SVcWvUChdZI-149" value="" style="shape=curlyBracket;whiteSpace=wrap;html=1;rounded=1;flipH=1;labelPosition=right;verticalLabelPosition=middle;align=left;verticalAlign=middle;" parent="1" vertex="1">
          <mxGeometry x="827" y="-840" width="20" height="230" as="geometry" />
        </mxCell>
        <mxCell id="XkUp8fBl9SVcWvUChdZI-150" value="" style="shape=curlyBracket;whiteSpace=wrap;html=1;rounded=1;flipH=1;labelPosition=right;verticalLabelPosition=middle;align=left;verticalAlign=middle;" parent="1" vertex="1">
          <mxGeometry x="827" y="-590" width="20" height="230" as="geometry" />
        </mxCell>
        <mxCell id="XkUp8fBl9SVcWvUChdZI-151" value="假设传入一个item的id，&lt;br&gt;就可以通过http请求获取该item的数据" style="text;html=1;align=center;verticalAlign=middle;resizable=0;points=[];autosize=1;strokeColor=none;fillColor=none;" parent="1" vertex="1">
          <mxGeometry x="850" y="-745" width="220" height="40" as="geometry" />
        </mxCell>
        <mxCell id="XkUp8fBl9SVcWvUChdZI-152" value="假设传入一系列item的id，&lt;br&gt;就可以通过http请求获取这些item的数据" style="text;html=1;align=center;verticalAlign=middle;resizable=0;points=[];autosize=1;strokeColor=none;fillColor=none;" parent="1" vertex="1">
          <mxGeometry x="850" y="-495" width="230" height="40" as="geometry" />
        </mxCell>
        <mxCell id="XkUp8fBl9SVcWvUChdZI-153" value="D01 我的&lt;br&gt;mine" style="shape=process;whiteSpace=wrap;html=1;backgroundOutline=1;fillColor=#f8cecc;strokeColor=#b85450;" parent="1" vertex="1">
          <mxGeometry x="1" y="1800" width="160" height="60" as="geometry" />
        </mxCell>
        <mxCell id="E_zChNZTgRhNoGyRf9_D-2" value="" style="endArrow=none;html=1;rounded=0;entryX=1;entryY=0;entryDx=0;entryDy=0;exitX=0;exitY=0;exitDx=0;exitDy=0;strokeWidth=4;fillColor=#a20025;strokeColor=#6F0000;" parent="1" source="XkUp8fBl9SVcWvUChdZI-50" target="XkUp8fBl9SVcWvUChdZI-49" edge="1">
          <mxGeometry width="50" height="50" relative="1" as="geometry">
            <mxPoint x="540" y="-450" as="sourcePoint" />
            <mxPoint x="590" y="-500" as="targetPoint" />
          </mxGeometry>
        </mxCell>
        <mxCell id="E_zChNZTgRhNoGyRf9_D-3" value="" style="endArrow=none;html=1;rounded=0;entryX=1;entryY=1;entryDx=0;entryDy=0;exitX=0;exitY=0;exitDx=0;exitDy=0;fillColor=#a20025;strokeColor=#6F0000;strokeWidth=3;" parent="1" source="XkUp8fBl9SVcWvUChdZI-49" target="XkUp8fBl9SVcWvUChdZI-49" edge="1">
          <mxGeometry width="50" height="50" relative="1" as="geometry">
            <mxPoint x="649" y="-470" as="sourcePoint" />
            <mxPoint x="810" y="-530" as="targetPoint" />
          </mxGeometry>
        </mxCell>
        <mxCell id="njqZF4OYOwPLG8LmHhrL-1" value="Pub09 直播和录播&lt;br&gt;&lt;div&gt;live&lt;/div&gt;" style="shape=process;whiteSpace=wrap;html=1;backgroundOutline=1;fillColor=#fff2cc;strokeColor=#d6b656;" parent="1" vertex="1">
          <mxGeometry x="639" y="-320" width="161" height="60" as="geometry" />
        </mxCell>
        <mxCell id="njqZF4OYOwPLG8LmHhrL-2" value="Pub10 新闻页面&lt;br&gt;&lt;div&gt;news&lt;/div&gt;" style="shape=process;whiteSpace=wrap;html=1;backgroundOutline=1;fillColor=#fff2cc;strokeColor=#d6b656;" parent="1" vertex="1">
          <mxGeometry x="639" y="-260" width="161" height="60" as="geometry" />
        </mxCell>
        <mxCell id="doHgU2Z-sekiHhcS_HEN-4" value="" style="edgeStyle=orthogonalEdgeStyle;rounded=0;orthogonalLoop=1;jettySize=auto;html=1;" parent="1" source="PexYSGEethEXAsyTlB1D-1" target="doHgU2Z-sekiHhcS_HEN-3" edge="1">
          <mxGeometry relative="1" as="geometry" />
        </mxCell>
        <mxCell id="PexYSGEethEXAsyTlB1D-1" value="C03&lt;br&gt;team_more" style="shape=process;whiteSpace=wrap;html=1;backgroundOutline=1;fillColor=#f8cecc;strokeColor=#b85450;" parent="1" vertex="1">
          <mxGeometry x="-380" y="1430" width="160" height="60" as="geometry" />
        </mxCell>
        <mxCell id="doHgU2Z-sekiHhcS_HEN-10" value="" style="edgeStyle=orthogonalEdgeStyle;rounded=0;orthogonalLoop=1;jettySize=auto;html=1;" parent="1" source="PexYSGEethEXAsyTlB1D-2" target="doHgU2Z-sekiHhcS_HEN-9" edge="1">
          <mxGeometry relative="1" as="geometry" />
        </mxCell>
        <mxCell id="doHgU2Z-sekiHhcS_HEN-12" value="" style="edgeStyle=orthogonalEdgeStyle;rounded=0;orthogonalLoop=1;jettySize=auto;html=1;entryX=1;entryY=0.5;entryDx=0;entryDy=0;exitX=0.5;exitY=1;exitDx=0;exitDy=0;" parent="1" source="PexYSGEethEXAsyTlB1D-2" target="doHgU2Z-sekiHhcS_HEN-11" edge="1">
          <mxGeometry relative="1" as="geometry" />
        </mxCell>
        <mxCell id="PexYSGEethEXAsyTlB1D-2" value="C06&lt;br&gt;match_more" style="shape=process;whiteSpace=wrap;html=1;backgroundOutline=1;fillColor=#f8cecc;strokeColor=#b85450;" parent="1" vertex="1">
          <mxGeometry x="-380" y="1540" width="160" height="60" as="geometry" />
        </mxCell>
        <mxCell id="PexYSGEethEXAsyTlB1D-3" value="" style="endArrow=classic;html=1;rounded=0;exitX=0.5;exitY=0;exitDx=0;exitDy=0;entryX=1;entryY=0.5;entryDx=0;entryDy=0;" parent="1" source="XkUp8fBl9SVcWvUChdZI-136" target="PexYSGEethEXAsyTlB1D-1" edge="1">
          <mxGeometry width="50" height="50" relative="1" as="geometry">
            <mxPoint x="-204" y="1350" as="sourcePoint" />
            <mxPoint x="-154" y="1300" as="targetPoint" />
            <Array as="points">
              <mxPoint x="-110" y="1460" />
            </Array>
          </mxGeometry>
        </mxCell>
        <mxCell id="PexYSGEethEXAsyTlB1D-4" value="" style="endArrow=classic;html=1;rounded=0;entryX=1;entryY=0.5;entryDx=0;entryDy=0;exitX=0;exitY=0.5;exitDx=0;exitDy=0;" parent="1" source="XkUp8fBl9SVcWvUChdZI-136" target="PexYSGEethEXAsyTlB1D-2" edge="1">
          <mxGeometry width="50" height="50" relative="1" as="geometry">
            <mxPoint x="-200" y="1580" as="sourcePoint" />
            <mxPoint x="-240" y="1554" as="targetPoint" />
          </mxGeometry>
        </mxCell>
        <mxCell id="CNtyiY0GuJpVYOLWiYQl-1" value="A02 搜索&lt;br&gt;search" style="shape=process;whiteSpace=wrap;html=1;backgroundOutline=1;fillColor=#f8cecc;strokeColor=#b85450;" parent="1" vertex="1">
          <mxGeometry x="-200" y="-520" width="160" height="60" as="geometry" />
        </mxCell>
        <mxCell id="doHgU2Z-sekiHhcS_HEN-1" value="C10&lt;br&gt;invite(player/coach)" style="shape=process;whiteSpace=wrap;html=1;backgroundOutline=1;fillColor=#f8cecc;strokeColor=#b85450;" parent="1" vertex="1">
          <mxGeometry x="400" y="1160" width="160" height="60" as="geometry" />
        </mxCell>
        <mxCell id="doHgU2Z-sekiHhcS_HEN-3" value="C10&lt;br&gt;invite(team)" style="shape=process;whiteSpace=wrap;html=1;backgroundOutline=1;fillColor=#f8cecc;strokeColor=#b85450;" parent="1" vertex="1">
          <mxGeometry x="-573" y="1430" width="160" height="60" as="geometry" />
        </mxCell>
        <mxCell id="doHgU2Z-sekiHhcS_HEN-9" value="C07&lt;br&gt;match_new" style="shape=process;whiteSpace=wrap;html=1;backgroundOutline=1;fillColor=#f8cecc;strokeColor=#b85450;" parent="1" vertex="1">
          <mxGeometry x="-573" y="1540" width="160" height="60" as="geometry" />
        </mxCell>
        <mxCell id="doHgU2Z-sekiHhcS_HEN-11" value="C05&lt;br&gt;match_edit" style="shape=process;whiteSpace=wrap;html=1;backgroundOutline=1;fillColor=#f8cecc;strokeColor=#b85450;" parent="1" vertex="1">
          <mxGeometry x="-573" y="1646" width="160" height="64" as="geometry" />
        </mxCell>
        <mxCell id="doHgU2Z-sekiHhcS_HEN-13" value="C10&lt;br&gt;invite(team/referee)&lt;div&gt;_select(captain)&lt;/div&gt;" style="shape=process;whiteSpace=wrap;html=1;backgroundOutline=1;fillColor=#f8cecc;strokeColor=#b85450;" parent="1" vertex="1">
          <mxGeometry x="400" y="1400" width="160" height="60" as="geometry" />
        </mxCell>
        <mxCell id="uVKpOOJBm1KnTl84Ffg_-1" value="C10&lt;br&gt;invite_select" style="shape=process;whiteSpace=wrap;html=1;backgroundOutline=1;fillColor=#f8cecc;strokeColor=#b85450;" parent="1" vertex="1">
          <mxGeometry x="-190" y="901" width="160" height="60" as="geometry" />
        </mxCell>
        <mxCell id="uVKpOOJBm1KnTl84Ffg_-2" value="邀请球员/球队/教练/裁判&lt;div&gt;选择队长(&lt;span style=&quot;background-color: initial;&quot;&gt;纵向排列、可滑动)&lt;/span&gt;&lt;div&gt;&lt;br&gt;&lt;/div&gt;&lt;div&gt;&lt;br&gt;&lt;/div&gt;&lt;div&gt;&lt;br&gt;&lt;/div&gt;&lt;div&gt;&lt;br&gt;&lt;/div&gt;&lt;div&gt;&lt;br&gt;&lt;/div&gt;&lt;div&gt;&lt;br&gt;&lt;/div&gt;&lt;div&gt;&lt;br&gt;&lt;/div&gt;&lt;div&gt;&lt;br&gt;&lt;/div&gt;&lt;div&gt;&lt;br&gt;&lt;/div&gt;&lt;div&gt;&lt;br&gt;&lt;/div&gt;&lt;div&gt;&lt;br&gt;&lt;/div&gt;&lt;div&gt;&lt;br&gt;&lt;/div&gt;&lt;div&gt;&lt;br&gt;&lt;/div&gt;&lt;div&gt;&lt;br&gt;&lt;/div&gt;&lt;div&gt;&lt;br&gt;&lt;/div&gt;&lt;/div&gt;" style="rounded=0;whiteSpace=wrap;html=1;" parent="1" vertex="1">
          <mxGeometry x="-190" y="960" width="160" height="248" as="geometry" />
        </mxCell>
        <mxCell id="uVKpOOJBm1KnTl84Ffg_-3" value="" style="rounded=1;whiteSpace=wrap;html=1;" parent="1" vertex="1">
          <mxGeometry x="-180" y="998" width="40" height="40" as="geometry" />
        </mxCell>
        <mxCell id="uVKpOOJBm1KnTl84Ffg_-6" value="" style="rounded=1;whiteSpace=wrap;html=1;" parent="1" vertex="1">
          <mxGeometry x="-130" y="1053" width="40" height="40" as="geometry" />
        </mxCell>
        <mxCell id="uVKpOOJBm1KnTl84Ffg_-7" value="" style="rounded=1;whiteSpace=wrap;html=1;" parent="1" vertex="1">
          <mxGeometry x="-130" y="1103" width="40" height="40" as="geometry" />
        </mxCell>
        <mxCell id="uVKpOOJBm1KnTl84Ffg_-8" value="" style="rounded=1;whiteSpace=wrap;html=1;" parent="1" vertex="1">
          <mxGeometry x="-130" y="1158" width="40" height="40" as="geometry" />
        </mxCell>
        <mxCell id="uVKpOOJBm1KnTl84Ffg_-9" value="" style="rounded=1;whiteSpace=wrap;html=1;" parent="1" vertex="1">
          <mxGeometry x="-80" y="1158" width="40" height="40" as="geometry" />
        </mxCell>
        <mxCell id="uVKpOOJBm1KnTl84Ffg_-10" value="" style="rounded=1;whiteSpace=wrap;html=1;" parent="1" vertex="1">
          <mxGeometry x="-80" y="1103" width="40" height="40" as="geometry" />
        </mxCell>
        <mxCell id="uVKpOOJBm1KnTl84Ffg_-11" value="" style="rounded=1;whiteSpace=wrap;html=1;" parent="1" vertex="1">
          <mxGeometry x="-80" y="1050.5" width="40" height="40" as="geometry" />
        </mxCell>
        <mxCell id="uVKpOOJBm1KnTl84Ffg_-12" value="" style="rounded=1;whiteSpace=wrap;html=1;" parent="1" vertex="1">
          <mxGeometry x="-80" y="998" width="40" height="40" as="geometry" />
        </mxCell>
        <mxCell id="uVKpOOJBm1KnTl84Ffg_-13" value="" style="rounded=1;whiteSpace=wrap;html=1;" parent="1" vertex="1">
          <mxGeometry x="-180" y="1103" width="40" height="40" as="geometry" />
        </mxCell>
        <mxCell id="uVKpOOJBm1KnTl84Ffg_-14" value="" style="rounded=1;whiteSpace=wrap;html=1;" parent="1" vertex="1">
          <mxGeometry x="-180" y="1053" width="40" height="40" as="geometry" />
        </mxCell>
        <mxCell id="uVKpOOJBm1KnTl84Ffg_-15" value="" style="rounded=1;whiteSpace=wrap;html=1;" parent="1" vertex="1">
          <mxGeometry x="-130" y="998" width="40" height="40" as="geometry" />
        </mxCell>
        <mxCell id="uVKpOOJBm1KnTl84Ffg_-17" value="" style="rounded=1;whiteSpace=wrap;html=1;" parent="1" vertex="1">
          <mxGeometry x="-180" y="1158" width="40" height="40" as="geometry" />
        </mxCell>
        <mxCell id="uVKpOOJBm1KnTl84Ffg_-46" value="C02&lt;br&gt;team_edit" style="shape=process;whiteSpace=wrap;html=1;backgroundOutline=1;fillColor=#f8cecc;strokeColor=#b85450;" parent="1" vertex="1">
          <mxGeometry x="-759" y="900" width="160" height="60" as="geometry" />
        </mxCell>
        <mxCell id="uVKpOOJBm1KnTl84Ffg_-47" value="" style="rounded=0;whiteSpace=wrap;html=1;" parent="1" vertex="1">
          <mxGeometry x="-759" y="960" width="160" height="460" as="geometry" />
        </mxCell>
        <mxCell id="uVKpOOJBm1KnTl84Ffg_-48" value="" style="rounded=0;whiteSpace=wrap;html=1;" parent="1" vertex="1">
          <mxGeometry x="-648" y="974" width="31" height="32" as="geometry" />
        </mxCell>
        <mxCell id="uVKpOOJBm1KnTl84Ffg_-49" value="队徽" style="text;html=1;align=center;verticalAlign=middle;whiteSpace=wrap;rounded=0;" parent="1" vertex="1">
          <mxGeometry x="-759" y="974" width="60" height="30" as="geometry" />
        </mxCell>
        <mxCell id="uVKpOOJBm1KnTl84Ffg_-50" value="队名" style="text;html=1;align=center;verticalAlign=middle;whiteSpace=wrap;rounded=0;" parent="1" vertex="1">
          <mxGeometry x="-759" y="1016" width="59" height="30" as="geometry" />
        </mxCell>
        <mxCell id="uVKpOOJBm1KnTl84Ffg_-51" value="" style="endArrow=none;html=1;rounded=0;" parent="1" edge="1">
          <mxGeometry width="50" height="50" relative="1" as="geometry">
            <mxPoint x="-760" y="1054" as="sourcePoint" />
            <mxPoint x="-599" y="1054" as="targetPoint" />
          </mxGeometry>
        </mxCell>
        <mxCell id="uVKpOOJBm1KnTl84Ffg_-52" value="XX书院&amp;nbsp;&lt;u&gt;&lt;font style=&quot;font-size: 10px;&quot;&gt;编辑&lt;/font&gt;&lt;/u&gt;" style="text;html=1;align=center;verticalAlign=middle;whiteSpace=wrap;rounded=0;" parent="1" vertex="1">
          <mxGeometry x="-670" y="1016" width="66" height="30" as="geometry" />
        </mxCell>
        <mxCell id="uVKpOOJBm1KnTl84Ffg_-54" value="队伍简介&lt;div&gt;......&amp;nbsp;&lt;u style=&quot;background-color: initial;&quot;&gt;&lt;font style=&quot;font-size: 10px;&quot;&gt;编辑&lt;/font&gt;&lt;/u&gt;&lt;/div&gt;" style="text;html=1;align=center;verticalAlign=middle;whiteSpace=wrap;rounded=0;" parent="1" vertex="1">
          <mxGeometry x="-760" y="1063" width="59" height="30" as="geometry" />
        </mxCell>
        <mxCell id="uVKpOOJBm1KnTl84Ffg_-55" value="" style="endArrow=none;html=1;rounded=0;exitX=0;exitY=0.223;exitDx=0;exitDy=0;exitPerimeter=0;entryX=0.992;entryY=0.225;entryDx=0;entryDy=0;entryPerimeter=0;" parent="1" edge="1">
          <mxGeometry width="50" height="50" relative="1" as="geometry">
            <mxPoint x="-759" y="1118" as="sourcePoint" />
            <mxPoint x="-600" y="1118" as="targetPoint" />
          </mxGeometry>
        </mxCell>
        <mxCell id="uVKpOOJBm1KnTl84Ffg_-56" value="队长" style="text;html=1;align=center;verticalAlign=middle;whiteSpace=wrap;rounded=0;" parent="1" vertex="1">
          <mxGeometry x="-760" y="1118" width="59" height="30" as="geometry" />
        </mxCell>
        <mxCell id="uVKpOOJBm1KnTl84Ffg_-57" value="" style="rounded=1;whiteSpace=wrap;html=1;" parent="1" vertex="1">
          <mxGeometry x="-750.5" y="1145" width="40" height="40" as="geometry" />
        </mxCell>
        <mxCell id="uVKpOOJBm1KnTl84Ffg_-58" value="" style="rounded=1;whiteSpace=wrap;html=1;" parent="1" vertex="1">
          <mxGeometry x="-700.5" y="1145" width="40" height="40" as="geometry" />
        </mxCell>
        <mxCell id="uVKpOOJBm1KnTl84Ffg_-59" value="&lt;font style=&quot;font-size: 9px;&quot;&gt;选择队长&lt;/font&gt;" style="text;html=1;align=center;verticalAlign=middle;whiteSpace=wrap;rounded=0;" parent="1" vertex="1">
          <mxGeometry x="-760" y="1150" width="60" height="30" as="geometry" />
        </mxCell>
        <mxCell id="uVKpOOJBm1KnTl84Ffg_-60" value="队长" style="text;html=1;align=center;verticalAlign=middle;whiteSpace=wrap;rounded=0;" parent="1" vertex="1">
          <mxGeometry x="-710" y="1151" width="59" height="30" as="geometry" />
        </mxCell>
        <mxCell id="uVKpOOJBm1KnTl84Ffg_-61" value="教练" style="text;html=1;align=center;verticalAlign=middle;whiteSpace=wrap;rounded=0;" parent="1" vertex="1">
          <mxGeometry x="-761" y="1185" width="59" height="30" as="geometry" />
        </mxCell>
        <mxCell id="uVKpOOJBm1KnTl84Ffg_-62" value="" style="rounded=1;whiteSpace=wrap;html=1;" parent="1" vertex="1">
          <mxGeometry x="-750.5" y="1212" width="40" height="40" as="geometry" />
        </mxCell>
        <mxCell id="uVKpOOJBm1KnTl84Ffg_-63" value="" style="rounded=1;whiteSpace=wrap;html=1;" parent="1" vertex="1">
          <mxGeometry x="-700.5" y="1212" width="40" height="40" as="geometry" />
        </mxCell>
        <mxCell id="uVKpOOJBm1KnTl84Ffg_-64" value="&lt;font style=&quot;font-size: 9px;&quot;&gt;邀请教练&lt;/font&gt;" style="text;html=1;align=center;verticalAlign=middle;whiteSpace=wrap;rounded=0;" parent="1" vertex="1">
          <mxGeometry x="-760" y="1217" width="60" height="30" as="geometry" />
        </mxCell>
        <mxCell id="uVKpOOJBm1KnTl84Ffg_-65" value="教练" style="text;html=1;align=center;verticalAlign=middle;whiteSpace=wrap;rounded=0;" parent="1" vertex="1">
          <mxGeometry x="-710" y="1218" width="59" height="30" as="geometry" />
        </mxCell>
        <mxCell id="uVKpOOJBm1KnTl84Ffg_-66" value="队员" style="text;html=1;align=center;verticalAlign=middle;whiteSpace=wrap;rounded=0;" parent="1" vertex="1">
          <mxGeometry x="-761" y="1251" width="59" height="29" as="geometry" />
        </mxCell>
        <mxCell id="uVKpOOJBm1KnTl84Ffg_-67" value="" style="rounded=1;whiteSpace=wrap;html=1;" parent="1" vertex="1">
          <mxGeometry x="-750.5" y="1278" width="40" height="40" as="geometry" />
        </mxCell>
        <mxCell id="uVKpOOJBm1KnTl84Ffg_-68" value="" style="rounded=1;whiteSpace=wrap;html=1;" parent="1" vertex="1">
          <mxGeometry x="-700.5" y="1278" width="40" height="40" as="geometry" />
        </mxCell>
        <mxCell id="uVKpOOJBm1KnTl84Ffg_-69" value="&lt;font style=&quot;font-size: 9px;&quot;&gt;邀请队员&lt;/font&gt;" style="text;html=1;align=center;verticalAlign=middle;whiteSpace=wrap;rounded=0;" parent="1" vertex="1">
          <mxGeometry x="-760" y="1283" width="60" height="30" as="geometry" />
        </mxCell>
        <mxCell id="uVKpOOJBm1KnTl84Ffg_-70" value="队员1" style="text;html=1;align=center;verticalAlign=middle;whiteSpace=wrap;rounded=0;" parent="1" vertex="1">
          <mxGeometry x="-710" y="1284" width="59" height="30" as="geometry" />
        </mxCell>
        <mxCell id="uVKpOOJBm1KnTl84Ffg_-72" value="" style="rounded=1;whiteSpace=wrap;html=1;" parent="1" vertex="1">
          <mxGeometry x="-649.5" y="1279" width="40" height="40" as="geometry" />
        </mxCell>
        <mxCell id="uVKpOOJBm1KnTl84Ffg_-73" value="队员2" style="text;html=1;align=center;verticalAlign=middle;whiteSpace=wrap;rounded=0;" parent="1" vertex="1">
          <mxGeometry x="-659" y="1285" width="59" height="30" as="geometry" />
        </mxCell>
        <mxCell id="uVKpOOJBm1KnTl84Ffg_-74" value="" style="rounded=1;whiteSpace=wrap;html=1;" parent="1" vertex="1">
          <mxGeometry x="-750.5" y="1327" width="40" height="40" as="geometry" />
        </mxCell>
        <mxCell id="uVKpOOJBm1KnTl84Ffg_-75" value="队员3" style="text;html=1;align=center;verticalAlign=middle;whiteSpace=wrap;rounded=0;" parent="1" vertex="1">
          <mxGeometry x="-760" y="1333" width="59" height="30" as="geometry" />
        </mxCell>
        <mxCell id="uVKpOOJBm1KnTl84Ffg_-76" value="" style="rounded=1;whiteSpace=wrap;html=1;" parent="1" vertex="1">
          <mxGeometry x="-700.5" y="1327" width="40" height="40" as="geometry" />
        </mxCell>
        <mxCell id="uVKpOOJBm1KnTl84Ffg_-77" value="队员4" style="text;html=1;align=center;verticalAlign=middle;whiteSpace=wrap;rounded=0;" parent="1" vertex="1">
          <mxGeometry x="-710" y="1333" width="59" height="30" as="geometry" />
        </mxCell>
        <mxCell id="uVKpOOJBm1KnTl84Ffg_-78" value="C05&lt;br&gt;match_edit" style="shape=process;whiteSpace=wrap;html=1;backgroundOutline=1;fillColor=#f8cecc;strokeColor=#b85450;" parent="1" vertex="1">
          <mxGeometry x="-569" y="900" width="160" height="60" as="geometry" />
        </mxCell>
        <mxCell id="uVKpOOJBm1KnTl84Ffg_-79" value="&lt;div&gt;&lt;br&gt;&lt;/div&gt;" style="rounded=0;whiteSpace=wrap;html=1;" parent="1" vertex="1">
          <mxGeometry x="-569" y="959" width="160" height="351" as="geometry" />
        </mxCell>
        <mxCell id="uVKpOOJBm1KnTl84Ffg_-80" value="" style="rounded=0;whiteSpace=wrap;html=1;" parent="1" vertex="1">
          <mxGeometry x="-559" y="995" width="40" height="40" as="geometry" />
        </mxCell>
        <mxCell id="uVKpOOJBm1KnTl84Ffg_-82" value="yyyy-mm-dd hh:mm:ss" style="text;html=1;align=center;verticalAlign=middle;whiteSpace=wrap;rounded=0;" parent="1" vertex="1">
          <mxGeometry x="-569" y="962" width="160" height="11" as="geometry" />
        </mxCell>
        <mxCell id="uVKpOOJBm1KnTl84Ffg_-83" value="比赛名称" style="text;html=1;align=center;verticalAlign=middle;whiteSpace=wrap;rounded=0;" parent="1" vertex="1">
          <mxGeometry x="-569" y="979" width="160" height="11" as="geometry" />
        </mxCell>
        <mxCell id="uVKpOOJBm1KnTl84Ffg_-84" value="主队&lt;span style=&quot;color: rgba(0, 0, 0, 0); font-family: monospace; font-size: 0px; text-align: start; text-wrap: nowrap;&quot;&gt;%3CmxGraphModel%3E%3Croot%3E%3CmxCell%20id%3D%220%22%2F%3E%3CmxCell%20id%3D%221%22%20parent%3D%220%22%2F%3E%3CmxCell%20id%3D%222%22%20value%3D%22%E9%98%9F%E5%BE%BD%22%20style%3D%22text%3Bhtml%3D1%3Balign%3Dcenter%3BverticalAlign%3Dmiddle%3BwhiteSpace%3Dwrap%3Brounded%3D0%3B%22%20vertex%3D%221%22%20parent%3D%221%22%3E%3CmxGeometry%20x%3D%22-710%22%20y%3D%22974%22%20width%3D%2260%22%20height%3D%2230%22%20as%3D%22geometry%22%2F%3E%3C%2FmxCell%3E%3C%2Froot%3E%3C%2FmxGraphModel%3E&lt;/span&gt;" style="text;html=1;align=center;verticalAlign=middle;whiteSpace=wrap;rounded=0;" parent="1" vertex="1">
          <mxGeometry x="-568.5" y="1000" width="60" height="30" as="geometry" />
        </mxCell>
        <mxCell id="uVKpOOJBm1KnTl84Ffg_-86" value="&lt;font style=&quot;font-size: 14px;&quot;&gt;1 : 1&lt;/font&gt;&lt;div&gt;&lt;font style=&quot;font-size: 10px;&quot;&gt;(3 : 4)&lt;/font&gt;&lt;/div&gt;" style="text;html=1;align=center;verticalAlign=middle;whiteSpace=wrap;rounded=0;" parent="1" vertex="1">
          <mxGeometry x="-520.5" y="999" width="60" height="30" as="geometry" />
        </mxCell>
        <mxCell id="uVKpOOJBm1KnTl84Ffg_-87" value="" style="endArrow=none;html=1;rounded=0;exitX=0;exitY=0.223;exitDx=0;exitDy=0;exitPerimeter=0;" parent="1" edge="1">
          <mxGeometry width="50" height="50" relative="1" as="geometry">
            <mxPoint x="-568" y="1053" as="sourcePoint" />
            <mxPoint x="-408" y="1053" as="targetPoint" />
          </mxGeometry>
        </mxCell>
        <mxCell id="uVKpOOJBm1KnTl84Ffg_-88" value="" style="endArrow=none;html=1;rounded=0;exitX=0;exitY=0.223;exitDx=0;exitDy=0;exitPerimeter=0;" parent="1" edge="1">
          <mxGeometry width="50" height="50" relative="1" as="geometry">
            <mxPoint x="-568" y="1086" as="sourcePoint" />
            <mxPoint x="-408" y="1086" as="targetPoint" />
          </mxGeometry>
        </mxCell>
        <mxCell id="uVKpOOJBm1KnTl84Ffg_-89" value="" style="endArrow=none;html=1;rounded=0;exitX=0;exitY=0.223;exitDx=0;exitDy=0;exitPerimeter=0;" parent="1" edge="1">
          <mxGeometry width="50" height="50" relative="1" as="geometry">
            <mxPoint x="-568" y="1119" as="sourcePoint" />
            <mxPoint x="-408" y="1119" as="targetPoint" />
          </mxGeometry>
        </mxCell>
        <mxCell id="uVKpOOJBm1KnTl84Ffg_-90" value="" style="endArrow=none;html=1;rounded=0;exitX=0;exitY=0.223;exitDx=0;exitDy=0;exitPerimeter=0;" parent="1" edge="1">
          <mxGeometry width="50" height="50" relative="1" as="geometry">
            <mxPoint x="-568" y="1153" as="sourcePoint" />
            <mxPoint x="-408" y="1153" as="targetPoint" />
          </mxGeometry>
        </mxCell>
        <mxCell id="uVKpOOJBm1KnTl84Ffg_-91" value="比赛日期&lt;span style=&quot;color: rgba(0, 0, 0, 0); font-family: monospace; font-size: 0px; text-align: start; text-wrap: nowrap;&quot;&gt;%3CmxGraphModel%3E%3Croot%3E%3CmxCell%20id%3D%220%22%2F%3E%3CmxCell%20id%3D%221%22%20parent%3D%220%22%2F%3E%3CmxCell%20id%3D%222%22%20value%3D%22%E9%98%9F%E5%BE%BD%22%20style%3D%22text%3Bhtml%3D1%3Balign%3Dcenter%3BverticalAlign%3Dmiddle%3BwhiteSpace%3Dwrap%3Brounded%3D0%3B%22%20vertex%3D%221%22%20parent%3D%221%22%3E%3CmxGeometry%20x%3D%22-710%22%20y%3D%22974%22%20width%3D%2260%22%20height%3D%2230%22%20as%3D%22geometry%22%2F%3E%3C%2FmxCell%3E%3C%2Froot%3E%3C%2FmxGraphModel%3E&lt;/span&gt;" style="text;html=1;align=center;verticalAlign=middle;whiteSpace=wrap;rounded=0;" parent="1" vertex="1">
          <mxGeometry x="-569" y="1054.5" width="60" height="30" as="geometry" />
        </mxCell>
        <mxCell id="uVKpOOJBm1KnTl84Ffg_-92" value="比赛时间&lt;span style=&quot;color: rgba(0, 0, 0, 0); font-family: monospace; font-size: 0px; text-align: start; text-wrap: nowrap;&quot;&gt;%3CmxGraphModel%3E%3Croot%3E%3CmxCell%20id%3D%220%22%2F%3E%3CmxCell%20id%3D%221%22%20parent%3D%220%22%2F%3E%3CmxCell%20id%3D%222%22%20value%3D%22%E9%98%9F%E5%BE%BD%22%20style%3D%22text%3Bhtml%3D1%3Balign%3Dcenter%3BverticalAlign%3Dmiddle%3BwhiteSpace%3Dwrap%3Brounded%3D0%3B%22%20vertex%3D%221%22%20parent%3D%221%22%3E%3CmxGeometry%20x%3D%22-710%22%20y%3D%22974%22%20width%3D%2260%22%20height%3D%2230%22%20as%3D%22geometry%22%2F%3E%3C%2FmxCell%3E%3C%2Froot%3E%3C%2FmxGraphModel%&lt;/span&gt;" style="text;html=1;align=center;verticalAlign=middle;whiteSpace=wrap;rounded=0;" parent="1" vertex="1">
          <mxGeometry x="-569" y="1088.5" width="60" height="30" as="geometry" />
        </mxCell>
        <mxCell id="uVKpOOJBm1KnTl84Ffg_-93" value="比赛类别&lt;span style=&quot;color: rgba(0, 0, 0, 0); font-family: monospace; font-size: 0px; text-align: start; text-wrap: nowrap;&quot;&gt;%3CmxGraphModel%3E%3Croot%3E%3CmxCell%20id%3D%220%22%2F%3E%3CmxCell%20id%3D%221%22%20parent%3D%220%22%2F%3E%3CmxCell%20id%3D%222%22%20value%3D%22%E9%98%9F%E5%BE%BD%22%20style%3D%22text%3Bhtml%3D1%3Balign%3Dcenter%3BverticalAlign%3Dmiddle%3BwhiteSpace%3Dwrap%3Brounded%3D0%3B%22%20vertex%3D%221%22%20parent%3D%221%22%3E%3CmxGeometry%20x%3D%22-710%22%20y%3D%22974%22%20width%3D%2260%22%20height%3D%2230%22%20as%3D%22geometry%22%2F%3E%3C%2FmxCell%3E%3C%2Froot%3E%3C%2FmxGraphMode&lt;/span&gt;" style="text;html=1;align=center;verticalAlign=middle;whiteSpace=wrap;rounded=0;" parent="1" vertex="1">
          <mxGeometry x="-569" y="1121" width="60" height="30" as="geometry" />
        </mxCell>
        <mxCell id="uVKpOOJBm1KnTl84Ffg_-94" value="裁判" style="text;html=1;align=center;verticalAlign=middle;whiteSpace=wrap;rounded=0;" parent="1" vertex="1">
          <mxGeometry x="-572" y="1184" width="59" height="30" as="geometry" />
        </mxCell>
        <mxCell id="uVKpOOJBm1KnTl84Ffg_-95" value="" style="rounded=1;whiteSpace=wrap;html=1;" parent="1" vertex="1">
          <mxGeometry x="-561.5" y="1211" width="40" height="40" as="geometry" />
        </mxCell>
        <mxCell id="uVKpOOJBm1KnTl84Ffg_-96" value="" style="rounded=1;whiteSpace=wrap;html=1;" parent="1" vertex="1">
          <mxGeometry x="-511.5" y="1211" width="40" height="40" as="geometry" />
        </mxCell>
        <mxCell id="uVKpOOJBm1KnTl84Ffg_-97" value="&lt;font style=&quot;font-size: 9px;&quot;&gt;邀请裁判&lt;/font&gt;" style="text;html=1;align=center;verticalAlign=middle;whiteSpace=wrap;rounded=0;" parent="1" vertex="1">
          <mxGeometry x="-571" y="1216" width="60" height="30" as="geometry" />
        </mxCell>
        <mxCell id="uVKpOOJBm1KnTl84Ffg_-98" value="裁判1" style="text;html=1;align=center;verticalAlign=middle;whiteSpace=wrap;rounded=0;" parent="1" vertex="1">
          <mxGeometry x="-521" y="1217" width="59" height="30" as="geometry" />
        </mxCell>
        <mxCell id="uVKpOOJBm1KnTl84Ffg_-99" value="yyyy-mm-dd" style="text;html=1;align=center;verticalAlign=middle;whiteSpace=wrap;rounded=0;" parent="1" vertex="1">
          <mxGeometry x="-479" y="1054.5" width="69" height="30" as="geometry" />
        </mxCell>
        <mxCell id="uVKpOOJBm1KnTl84Ffg_-100" value="hh:mm:ss" style="text;html=1;align=center;verticalAlign=middle;whiteSpace=wrap;rounded=0;" parent="1" vertex="1">
          <mxGeometry x="-470" y="1087.5" width="61" height="30" as="geometry" />
        </mxCell>
        <mxCell id="uVKpOOJBm1KnTl84Ffg_-101" value="小组赛" style="text;html=1;align=center;verticalAlign=middle;whiteSpace=wrap;rounded=0;" parent="1" vertex="1">
          <mxGeometry x="-470" y="1120.5" width="61" height="30" as="geometry" />
        </mxCell>
        <mxCell id="uVKpOOJBm1KnTl84Ffg_-102" value="" style="endArrow=none;html=1;rounded=0;exitX=0;exitY=0.223;exitDx=0;exitDy=0;exitPerimeter=0;" parent="1" edge="1">
          <mxGeometry width="50" height="50" relative="1" as="geometry">
            <mxPoint x="-568" y="1153" as="sourcePoint" />
            <mxPoint x="-408" y="1153" as="targetPoint" />
          </mxGeometry>
        </mxCell>
        <mxCell id="uVKpOOJBm1KnTl84Ffg_-103" value="" style="endArrow=none;html=1;rounded=0;exitX=0;exitY=0.223;exitDx=0;exitDy=0;exitPerimeter=0;" parent="1" edge="1">
          <mxGeometry width="50" height="50" relative="1" as="geometry">
            <mxPoint x="-568" y="1187" as="sourcePoint" />
            <mxPoint x="-408" y="1187" as="targetPoint" />
          </mxGeometry>
        </mxCell>
        <mxCell id="uVKpOOJBm1KnTl84Ffg_-104" value="比赛组别&lt;span style=&quot;color: rgba(0, 0, 0, 0); font-family: monospace; font-size: 0px; text-align: start; text-wrap: nowrap;&quot;&gt;%3CmxGraphModel%3E%3Croot%3E%3CmxCell%20id%3D%220%22%2F%3E%3CmxCell%20id%3D%221%22%20parent%3D%220%22%2F%3E%3CmxCell%20id%3D%222%22%20value%3D%22%E9%98%9F%E5%BE%BD%22%20style%3D%22text%3Bhtml%3D1%3Balign%3Dcenter%3BverticalAlign%3Dmiddle%3BwhiteSpace%3Dwrap%3Brounded%3D0%3B%22%20vertex%3D%221%22%20parent%3D%221%22%3E%3CmxGeometry%20x%3D%22-710%22%20y%3D%22974%22%20width%3D%2260%22%20height%3D%2230%22%20as%3D%22geometry%22%2F%3E%3C%2FmxCell%3E%3C%2Froot%3E%3C%2FmxGraphMode&lt;/span&gt;" style="text;html=1;align=center;verticalAlign=middle;whiteSpace=wrap;rounded=0;" parent="1" vertex="1">
          <mxGeometry x="-569" y="1155" width="60" height="30" as="geometry" />
        </mxCell>
        <mxCell id="uVKpOOJBm1KnTl84Ffg_-105" value="A组" style="text;html=1;align=center;verticalAlign=middle;whiteSpace=wrap;rounded=0;" parent="1" vertex="1">
          <mxGeometry x="-470" y="1154.5" width="61" height="30" as="geometry" />
        </mxCell>
        <mxCell id="uVKpOOJBm1KnTl84Ffg_-108" value="" style="rounded=0;whiteSpace=wrap;html=1;" parent="1" vertex="1">
          <mxGeometry x="-460" y="995" width="40" height="40" as="geometry" />
        </mxCell>
        <mxCell id="uVKpOOJBm1KnTl84Ffg_-109" value="客队&lt;span style=&quot;color: rgba(0, 0, 0, 0); font-family: monospace; font-size: 0px; text-align: start; text-wrap: nowrap;&quot;&gt;%3CmxGraphModel%3E%3Croot%3E%3CmxCell%20id%3D%220%22%2F%3E%3CmxCell%20id%3D%221%22%20parent%3D%220%22%2F%3E%3CmxCell%20id%3D%222%22%20value%3D%22%E9%98%9F%E5%BE%BD%22%20style%3D%22text%3Bhtml%3D1%3Balign%3Dcenter%3BverticalAlign%3Dmiddle%3BwhiteSpace%3Dwrap%3Brounded%3D0%3B%22%20vertex%3D%221%22%20parent%3D%221%22%3E%3CmxGeometry%20x%3D%22-710%22%20y%3D%22974%22%20width%3D%2260%22%20height%3D%2230%22%20as%3D%22geometry%22%2F%3E%3C%2FmxCell%3E%3C%2Froot%3E%3C%2FmxGraphModel%3E&lt;/span&gt;" style="text;html=1;align=center;verticalAlign=middle;whiteSpace=wrap;rounded=0;" parent="1" vertex="1">
          <mxGeometry x="-469.5" y="1000" width="60" height="30" as="geometry" />
        </mxCell>
        <mxCell id="uVKpOOJBm1KnTl84Ffg_-110" value="C08&lt;br&gt;event_edit" style="shape=process;whiteSpace=wrap;html=1;backgroundOutline=1;fillColor=#f8cecc;strokeColor=#b85450;" parent="1" vertex="1">
          <mxGeometry x="-379" y="900" width="160" height="60" as="geometry" />
        </mxCell>
        <mxCell id="uVKpOOJBm1KnTl84Ffg_-111" value="" style="rounded=0;whiteSpace=wrap;html=1;" parent="1" vertex="1">
          <mxGeometry x="-379" y="960" width="160" height="370" as="geometry" />
        </mxCell>
        <mxCell id="uVKpOOJBm1KnTl84Ffg_-112" value="" style="rounded=0;whiteSpace=wrap;html=1;" parent="1" vertex="1">
          <mxGeometry x="-365" y="974" width="31" height="32" as="geometry" />
        </mxCell>
        <mxCell id="uVKpOOJBm1KnTl84Ffg_-114" value="赛事名称&amp;nbsp;&amp;nbsp;&lt;font style=&quot;font-size: 10px;&quot;&gt;&lt;u&gt;编辑&lt;/u&gt;&lt;/font&gt;" style="text;html=1;align=center;verticalAlign=middle;whiteSpace=wrap;rounded=0;" parent="1" vertex="1">
          <mxGeometry x="-314" y="976" width="90" height="30" as="geometry" />
        </mxCell>
        <mxCell id="uVKpOOJBm1KnTl84Ffg_-115" value="" style="endArrow=none;html=1;rounded=0;exitX=0;exitY=0.223;exitDx=0;exitDy=0;exitPerimeter=0;" parent="1" edge="1">
          <mxGeometry width="50" height="50" relative="1" as="geometry">
            <mxPoint x="-379" y="1020.6599999999999" as="sourcePoint" />
            <mxPoint x="-219" y="1021" as="targetPoint" />
          </mxGeometry>
        </mxCell>
        <mxCell id="uVKpOOJBm1KnTl84Ffg_-117" value="赛事简介&lt;div&gt;...... &lt;u&gt;&lt;font style=&quot;font-size: 10px;&quot;&gt;编辑&lt;/font&gt;&lt;/u&gt;&lt;/div&gt;" style="text;html=1;align=center;verticalAlign=middle;whiteSpace=wrap;rounded=0;" parent="1" vertex="1">
          <mxGeometry x="-380" y="1030" width="70" height="30" as="geometry" />
        </mxCell>
        <mxCell id="uVKpOOJBm1KnTl84Ffg_-118" value="" style="endArrow=none;html=1;rounded=0;exitX=0;exitY=0.223;exitDx=0;exitDy=0;exitPerimeter=0;entryX=0.992;entryY=0.225;entryDx=0;entryDy=0;entryPerimeter=0;" parent="1" edge="1">
          <mxGeometry width="50" height="50" relative="1" as="geometry">
            <mxPoint x="-379" y="1084" as="sourcePoint" />
            <mxPoint x="-220" y="1084" as="targetPoint" />
          </mxGeometry>
        </mxCell>
        <mxCell id="uVKpOOJBm1KnTl84Ffg_-119" value="参赛球队" style="text;html=1;align=center;verticalAlign=middle;whiteSpace=wrap;rounded=0;" parent="1" vertex="1">
          <mxGeometry x="-380" y="1084" width="59" height="30" as="geometry" />
        </mxCell>
        <mxCell id="uVKpOOJBm1KnTl84Ffg_-120" value="" style="rounded=1;whiteSpace=wrap;html=1;" parent="1" vertex="1">
          <mxGeometry x="-370.5" y="1112" width="40" height="40" as="geometry" />
        </mxCell>
        <mxCell id="uVKpOOJBm1KnTl84Ffg_-121" value="" style="rounded=1;whiteSpace=wrap;html=1;" parent="1" vertex="1">
          <mxGeometry x="-320.5" y="1112" width="40" height="40" as="geometry" />
        </mxCell>
        <mxCell id="uVKpOOJBm1KnTl84Ffg_-122" value="&lt;font style=&quot;font-size: 12px;&quot;&gt;球队1&lt;/font&gt;" style="text;html=1;align=center;verticalAlign=middle;whiteSpace=wrap;rounded=0;" parent="1" vertex="1">
          <mxGeometry x="-380" y="1116" width="60" height="30" as="geometry" />
        </mxCell>
        <mxCell id="uVKpOOJBm1KnTl84Ffg_-123" value="球队2" style="text;html=1;align=center;verticalAlign=middle;whiteSpace=wrap;rounded=0;" parent="1" vertex="1">
          <mxGeometry x="-330" y="1117" width="59" height="30" as="geometry" />
        </mxCell>
        <mxCell id="uVKpOOJBm1KnTl84Ffg_-124" value="赛程" style="text;html=1;align=center;verticalAlign=middle;whiteSpace=wrap;rounded=0;" parent="1" vertex="1">
          <mxGeometry x="-380" y="1167" width="59" height="30" as="geometry" />
        </mxCell>
        <mxCell id="uVKpOOJBm1KnTl84Ffg_-140" value="" style="rounded=1;whiteSpace=wrap;html=1;" parent="1" vertex="1">
          <mxGeometry x="-269.5" y="1112" width="40" height="40" as="geometry" />
        </mxCell>
        <mxCell id="uVKpOOJBm1KnTl84Ffg_-141" value="&lt;font style=&quot;font-size: 12px;&quot;&gt;球队3&lt;/font&gt;" style="text;html=1;align=center;verticalAlign=middle;whiteSpace=wrap;rounded=0;" parent="1" vertex="1">
          <mxGeometry x="-279" y="1116" width="60" height="30" as="geometry" />
        </mxCell>
        <mxCell id="uVKpOOJBm1KnTl84Ffg_-142" value="更多" style="text;html=1;align=center;verticalAlign=middle;whiteSpace=wrap;rounded=0;fillColor=#dae8fc;strokeColor=#6c8ebf;" parent="1" vertex="1">
          <mxGeometry x="-259" y="1085" width="40" height="20" as="geometry" />
        </mxCell>
        <mxCell id="uVKpOOJBm1KnTl84Ffg_-143" value="" style="endArrow=none;html=1;rounded=0;exitX=0;exitY=0.223;exitDx=0;exitDy=0;exitPerimeter=0;entryX=0.992;entryY=0.225;entryDx=0;entryDy=0;entryPerimeter=0;" parent="1" edge="1">
          <mxGeometry width="50" height="50" relative="1" as="geometry">
            <mxPoint x="-378" y="1166" as="sourcePoint" />
            <mxPoint x="-219" y="1166" as="targetPoint" />
          </mxGeometry>
        </mxCell>
        <mxCell id="uVKpOOJBm1KnTl84Ffg_-144" style="edgeStyle=orthogonalEdgeStyle;rounded=0;orthogonalLoop=1;jettySize=auto;html=1;exitX=0.5;exitY=1;exitDx=0;exitDy=0;" parent="1" source="uVKpOOJBm1KnTl84Ffg_-111" target="uVKpOOJBm1KnTl84Ffg_-111" edge="1">
          <mxGeometry relative="1" as="geometry" />
        </mxCell>
        <mxCell id="uVKpOOJBm1KnTl84Ffg_-146" value="" style="rounded=0;whiteSpace=wrap;html=1;" parent="1" vertex="1">
          <mxGeometry x="-360.5" y="1203" width="120" height="67" as="geometry" />
        </mxCell>
        <mxCell id="uVKpOOJBm1KnTl84Ffg_-147" value="更多" style="text;html=1;align=center;verticalAlign=middle;whiteSpace=wrap;rounded=0;fillColor=#dae8fc;strokeColor=#6c8ebf;" parent="1" vertex="1">
          <mxGeometry x="-260" y="1167" width="40" height="20" as="geometry" />
        </mxCell>
        <mxCell id="uVKpOOJBm1KnTl84Ffg_-149" value="" style="rounded=0;whiteSpace=wrap;html=1;" parent="1" vertex="1">
          <mxGeometry x="-354" y="1230" width="30" height="29" as="geometry" />
        </mxCell>
        <mxCell id="uVKpOOJBm1KnTl84Ffg_-150" value="&lt;font style=&quot;font-size: 9px;&quot;&gt;yyyy-mm-dd hh:mm:ss&lt;/font&gt;" style="text;html=1;align=center;verticalAlign=middle;whiteSpace=wrap;rounded=0;" parent="1" vertex="1">
          <mxGeometry x="-379" y="1202" width="160" height="11" as="geometry" />
        </mxCell>
        <mxCell id="uVKpOOJBm1KnTl84Ffg_-151" value="&lt;font style=&quot;font-size: 9px;&quot;&gt;比赛类别 比赛组别&lt;/font&gt;" style="text;html=1;align=center;verticalAlign=middle;whiteSpace=wrap;rounded=0;" parent="1" vertex="1">
          <mxGeometry x="-379" y="1215" width="160" height="11" as="geometry" />
        </mxCell>
        <mxCell id="uVKpOOJBm1KnTl84Ffg_-153" value="&lt;font style=&quot;font-size: 9px;&quot;&gt;1 : 1&lt;/font&gt;&lt;div&gt;&lt;font style=&quot;font-size: 6px;&quot;&gt;(3 : 4)&lt;/font&gt;&lt;/div&gt;" style="text;html=1;align=center;verticalAlign=middle;whiteSpace=wrap;rounded=0;" parent="1" vertex="1">
          <mxGeometry x="-329.5" y="1230" width="60" height="30" as="geometry" />
        </mxCell>
        <mxCell id="uVKpOOJBm1KnTl84Ffg_-154" value="" style="rounded=0;whiteSpace=wrap;html=1;" parent="1" vertex="1">
          <mxGeometry x="-276" y="1230" width="30" height="29" as="geometry" />
        </mxCell>
        <mxCell id="uVKpOOJBm1KnTl84Ffg_-156" value="" style="rounded=0;whiteSpace=wrap;html=1;" parent="1" vertex="1">
          <mxGeometry x="56" y="1870" width="50" height="50" as="geometry" />
        </mxCell>
        <mxCell id="uVKpOOJBm1KnTl84Ffg_-157" value="&lt;font style=&quot;font-size: 10px;&quot;&gt;用户头像&lt;/font&gt;" style="text;html=1;align=center;verticalAlign=middle;whiteSpace=wrap;rounded=0;" parent="1" vertex="1">
          <mxGeometry x="51" y="1880" width="60" height="30" as="geometry" />
        </mxCell>
        <mxCell id="uVKpOOJBm1KnTl84Ffg_-158" value="C04&lt;br&gt;team_new" style="shape=process;whiteSpace=wrap;html=1;backgroundOutline=1;fillColor=#f8cecc;strokeColor=#b85450;" parent="1" vertex="1">
          <mxGeometry x="595" y="902" width="160" height="60" as="geometry" />
        </mxCell>
        <mxCell id="uVKpOOJBm1KnTl84Ffg_-159" value="C07&lt;br&gt;match_new" style="shape=process;whiteSpace=wrap;html=1;backgroundOutline=1;fillColor=#f8cecc;strokeColor=#b85450;" parent="1" vertex="1">
          <mxGeometry x="787" y="902" width="160" height="60" as="geometry" />
        </mxCell>
        <mxCell id="uVKpOOJBm1KnTl84Ffg_-160" value="C09&lt;br&gt;event_new" style="shape=process;whiteSpace=wrap;html=1;backgroundOutline=1;fillColor=#f8cecc;strokeColor=#b85450;" parent="1" vertex="1">
          <mxGeometry x="975" y="902" width="160" height="60" as="geometry" />
        </mxCell>
        <mxCell id="uVKpOOJBm1KnTl84Ffg_-161" value="" style="rounded=0;whiteSpace=wrap;html=1;" parent="1" vertex="1">
          <mxGeometry x="595" y="962" width="160" height="198" as="geometry" />
        </mxCell>
        <mxCell id="uVKpOOJBm1KnTl84Ffg_-162" value="" style="rounded=0;whiteSpace=wrap;html=1;" parent="1" vertex="1">
          <mxGeometry x="706" y="976" width="31" height="32" as="geometry" />
        </mxCell>
        <mxCell id="uVKpOOJBm1KnTl84Ffg_-163" value="队徽" style="text;html=1;align=center;verticalAlign=middle;whiteSpace=wrap;rounded=0;" parent="1" vertex="1">
          <mxGeometry x="595" y="976" width="60" height="30" as="geometry" />
        </mxCell>
        <mxCell id="uVKpOOJBm1KnTl84Ffg_-164" value="队名" style="text;html=1;align=center;verticalAlign=middle;whiteSpace=wrap;rounded=0;" parent="1" vertex="1">
          <mxGeometry x="595" y="1018" width="59" height="30" as="geometry" />
        </mxCell>
        <mxCell id="uVKpOOJBm1KnTl84Ffg_-165" value="" style="endArrow=none;html=1;rounded=0;exitX=-0.002;exitY=0.478;exitDx=0;exitDy=0;exitPerimeter=0;" parent="1" source="uVKpOOJBm1KnTl84Ffg_-161" edge="1">
          <mxGeometry width="50" height="50" relative="1" as="geometry">
            <mxPoint x="600" y="1056" as="sourcePoint" />
            <mxPoint x="755" y="1056" as="targetPoint" />
          </mxGeometry>
        </mxCell>
        <mxCell id="uVKpOOJBm1KnTl84Ffg_-166" value="&lt;u&gt;&lt;font style=&quot;font-size: 10px;&quot;&gt;编辑&lt;/font&gt;&lt;/u&gt;" style="text;html=1;align=center;verticalAlign=middle;whiteSpace=wrap;rounded=0;" parent="1" vertex="1">
          <mxGeometry x="691" y="1018" width="59" height="30" as="geometry" />
        </mxCell>
        <mxCell id="uVKpOOJBm1KnTl84Ffg_-167" value="队伍简介&lt;div&gt;&lt;u&gt;&lt;font style=&quot;font-size: 10px;&quot;&gt;编辑&lt;/font&gt;&lt;/u&gt;&lt;br&gt;&lt;/div&gt;" style="text;html=1;align=center;verticalAlign=middle;whiteSpace=wrap;rounded=0;" parent="1" vertex="1">
          <mxGeometry x="594" y="1065" width="59" height="30" as="geometry" />
        </mxCell>
        <mxCell id="uVKpOOJBm1KnTl84Ffg_-190" value="&lt;div&gt;&lt;br&gt;&lt;/div&gt;" style="rounded=0;whiteSpace=wrap;html=1;" parent="1" vertex="1">
          <mxGeometry x="787" y="962" width="160" height="268" as="geometry" />
        </mxCell>
        <mxCell id="uVKpOOJBm1KnTl84Ffg_-191" value="" style="rounded=0;whiteSpace=wrap;html=1;" parent="1" vertex="1">
          <mxGeometry x="797" y="998" width="40" height="40" as="geometry" />
        </mxCell>
        <mxCell id="uVKpOOJBm1KnTl84Ffg_-192" value="yyyy-mm-dd hh:mm:ss" style="text;html=1;align=center;verticalAlign=middle;whiteSpace=wrap;rounded=0;" parent="1" vertex="1">
          <mxGeometry x="787" y="965" width="160" height="11" as="geometry" />
        </mxCell>
        <mxCell id="uVKpOOJBm1KnTl84Ffg_-193" value="比赛名称" style="text;html=1;align=center;verticalAlign=middle;whiteSpace=wrap;rounded=0;" parent="1" vertex="1">
          <mxGeometry x="787" y="982" width="160" height="11" as="geometry" />
        </mxCell>
        <mxCell id="uVKpOOJBm1KnTl84Ffg_-194" value="主队&lt;span style=&quot;color: rgba(0, 0, 0, 0); font-family: monospace; font-size: 0px; text-align: start; text-wrap: nowrap;&quot;&gt;%3CmxGraphModel%3E%3Croot%3E%3CmxCell%20id%3D%220%22%2F%3E%3CmxCell%20id%3D%221%22%20parent%3D%220%22%2F%3E%3CmxCell%20id%3D%222%22%20value%3D%22%E9%98%9F%E5%BE%BD%22%20style%3D%22text%3Bhtml%3D1%3Balign%3Dcenter%3BverticalAlign%3Dmiddle%3BwhiteSpace%3Dwrap%3Brounded%3D0%3B%22%20vertex%3D%221%22%20parent%3D%221%22%3E%3CmxGeometry%20x%3D%22-710%22%20y%3D%22974%22%20width%3D%2260%22%20height%3D%2230%22%20as%3D%22geometry%22%2F%3E%3C%2FmxCell%3E%3C%2Froot%3E%3C%2FmxGraphModel%3E&lt;/span&gt;" style="text;html=1;align=center;verticalAlign=middle;whiteSpace=wrap;rounded=0;" parent="1" vertex="1">
          <mxGeometry x="787.5" y="1003" width="60" height="30" as="geometry" />
        </mxCell>
        <mxCell id="uVKpOOJBm1KnTl84Ffg_-195" value="&lt;font style=&quot;font-size: 14px;&quot;&gt;1 : 1&lt;/font&gt;&lt;div&gt;&lt;font style=&quot;font-size: 10px;&quot;&gt;(3 : 4)&lt;/font&gt;&lt;/div&gt;" style="text;html=1;align=center;verticalAlign=middle;whiteSpace=wrap;rounded=0;" parent="1" vertex="1">
          <mxGeometry x="835.5" y="1002" width="60" height="30" as="geometry" />
        </mxCell>
        <mxCell id="uVKpOOJBm1KnTl84Ffg_-196" value="" style="endArrow=none;html=1;rounded=0;exitX=0;exitY=0.223;exitDx=0;exitDy=0;exitPerimeter=0;" parent="1" edge="1">
          <mxGeometry width="50" height="50" relative="1" as="geometry">
            <mxPoint x="788" y="1056" as="sourcePoint" />
            <mxPoint x="948" y="1056" as="targetPoint" />
          </mxGeometry>
        </mxCell>
        <mxCell id="uVKpOOJBm1KnTl84Ffg_-197" value="" style="endArrow=none;html=1;rounded=0;exitX=0;exitY=0.223;exitDx=0;exitDy=0;exitPerimeter=0;" parent="1" edge="1">
          <mxGeometry width="50" height="50" relative="1" as="geometry">
            <mxPoint x="788" y="1089" as="sourcePoint" />
            <mxPoint x="948" y="1089" as="targetPoint" />
          </mxGeometry>
        </mxCell>
        <mxCell id="uVKpOOJBm1KnTl84Ffg_-198" value="" style="endArrow=none;html=1;rounded=0;exitX=0;exitY=0.223;exitDx=0;exitDy=0;exitPerimeter=0;" parent="1" edge="1">
          <mxGeometry width="50" height="50" relative="1" as="geometry">
            <mxPoint x="788" y="1122" as="sourcePoint" />
            <mxPoint x="948" y="1122" as="targetPoint" />
          </mxGeometry>
        </mxCell>
        <mxCell id="uVKpOOJBm1KnTl84Ffg_-199" value="" style="endArrow=none;html=1;rounded=0;exitX=0;exitY=0.223;exitDx=0;exitDy=0;exitPerimeter=0;" parent="1" edge="1">
          <mxGeometry width="50" height="50" relative="1" as="geometry">
            <mxPoint x="788" y="1156" as="sourcePoint" />
            <mxPoint x="948" y="1156" as="targetPoint" />
          </mxGeometry>
        </mxCell>
        <mxCell id="uVKpOOJBm1KnTl84Ffg_-200" value="比赛日期&lt;span style=&quot;color: rgba(0, 0, 0, 0); font-family: monospace; font-size: 0px; text-align: start; text-wrap: nowrap;&quot;&gt;%3CmxGraphModel%3E%3Croot%3E%3CmxCell%20id%3D%220%22%2F%3E%3CmxCell%20id%3D%221%22%20parent%3D%220%22%2F%3E%3CmxCell%20id%3D%222%22%20value%3D%22%E9%98%9F%E5%BE%BD%22%20style%3D%22text%3Bhtml%3D1%3Balign%3Dcenter%3BverticalAlign%3Dmiddle%3BwhiteSpace%3Dwrap%3Brounded%3D0%3B%22%20vertex%3D%221%22%20parent%3D%221%22%3E%3CmxGeometry%20x%3D%22-710%22%20y%3D%22974%22%20width%3D%2260%22%20height%3D%2230%22%20as%3D%22geometry%22%2F%3E%3C%2FmxCell%3E%3C%2Froot%3E%3C%2FmxGraphModel%3E&lt;/span&gt;" style="text;html=1;align=center;verticalAlign=middle;whiteSpace=wrap;rounded=0;" parent="1" vertex="1">
          <mxGeometry x="787" y="1057.5" width="60" height="30" as="geometry" />
        </mxCell>
        <mxCell id="uVKpOOJBm1KnTl84Ffg_-201" value="比赛时间&lt;span style=&quot;color: rgba(0, 0, 0, 0); font-family: monospace; font-size: 0px; text-align: start; text-wrap: nowrap;&quot;&gt;%3CmxGraphModel%3E%3Croot%3E%3CmxCell%20id%3D%220%22%2F%3E%3CmxCell%20id%3D%221%22%20parent%3D%220%22%2F%3E%3CmxCell%20id%3D%222%22%20value%3D%22%E9%98%9F%E5%BE%BD%22%20style%3D%22text%3Bhtml%3D1%3Balign%3Dcenter%3BverticalAlign%3Dmiddle%3BwhiteSpace%3Dwrap%3Brounded%3D0%3B%22%20vertex%3D%221%22%20parent%3D%221%22%3E%3CmxGeometry%20x%3D%22-710%22%20y%3D%22974%22%20width%3D%2260%22%20height%3D%2230%22%20as%3D%22geometry%22%2F%3E%3C%2FmxCell%3E%3C%2Froot%3E%3C%2FmxGraphModel%&lt;/span&gt;" style="text;html=1;align=center;verticalAlign=middle;whiteSpace=wrap;rounded=0;" parent="1" vertex="1">
          <mxGeometry x="787" y="1091.5" width="60" height="30" as="geometry" />
        </mxCell>
        <mxCell id="uVKpOOJBm1KnTl84Ffg_-202" value="比赛类别&lt;span style=&quot;color: rgba(0, 0, 0, 0); font-family: monospace; font-size: 0px; text-align: start; text-wrap: nowrap;&quot;&gt;%3CmxGraphModel%3E%3Croot%3E%3CmxCell%20id%3D%220%22%2F%3E%3CmxCell%20id%3D%221%22%20parent%3D%220%22%2F%3E%3CmxCell%20id%3D%222%22%20value%3D%22%E9%98%9F%E5%BE%BD%22%20style%3D%22text%3Bhtml%3D1%3Balign%3Dcenter%3BverticalAlign%3Dmiddle%3BwhiteSpace%3Dwrap%3Brounded%3D0%3B%22%20vertex%3D%221%22%20parent%3D%221%22%3E%3CmxGeometry%20x%3D%22-710%22%20y%3D%22974%22%20width%3D%2260%22%20height%3D%2230%22%20as%3D%22geometry%22%2F%3E%3C%2FmxCell%3E%3C%2Froot%3E%3C%2FmxGraphMode&lt;/span&gt;" style="text;html=1;align=center;verticalAlign=middle;whiteSpace=wrap;rounded=0;" parent="1" vertex="1">
          <mxGeometry x="787" y="1124" width="60" height="30" as="geometry" />
        </mxCell>
        <mxCell id="uVKpOOJBm1KnTl84Ffg_-208" value="&lt;span style=&quot;font-size: 9px;&quot;&gt;选择比赛日期&lt;/span&gt;" style="text;html=1;align=center;verticalAlign=middle;whiteSpace=wrap;rounded=0;" parent="1" vertex="1">
          <mxGeometry x="883" y="1057.5" width="69" height="30" as="geometry" />
        </mxCell>
        <mxCell id="uVKpOOJBm1KnTl84Ffg_-209" value="&lt;span style=&quot;font-size: 9px;&quot;&gt;选择比赛时间&lt;/span&gt;" style="text;html=1;align=center;verticalAlign=middle;whiteSpace=wrap;rounded=0;" parent="1" vertex="1">
          <mxGeometry x="886" y="1090.5" width="61" height="30" as="geometry" />
        </mxCell>
        <mxCell id="uVKpOOJBm1KnTl84Ffg_-210" value="&lt;font style=&quot;font-size: 9px;&quot;&gt;选择比赛类别&lt;/font&gt;" style="text;html=1;align=center;verticalAlign=middle;whiteSpace=wrap;rounded=0;" parent="1" vertex="1">
          <mxGeometry x="886" y="1123.5" width="61" height="26.5" as="geometry" />
        </mxCell>
        <mxCell id="uVKpOOJBm1KnTl84Ffg_-211" value="" style="endArrow=none;html=1;rounded=0;exitX=0;exitY=0.223;exitDx=0;exitDy=0;exitPerimeter=0;" parent="1" edge="1">
          <mxGeometry width="50" height="50" relative="1" as="geometry">
            <mxPoint x="788" y="1156" as="sourcePoint" />
            <mxPoint x="948" y="1156" as="targetPoint" />
          </mxGeometry>
        </mxCell>
        <mxCell id="uVKpOOJBm1KnTl84Ffg_-213" value="比赛组别&lt;span style=&quot;color: rgba(0, 0, 0, 0); font-family: monospace; font-size: 0px; text-align: start; text-wrap: nowrap;&quot;&gt;%3CmxGraphModel%3E%3Croot%3E%3CmxCell%20id%3D%220%22%2F%3E%3CmxCell%20id%3D%221%22%20parent%3D%220%22%2F%3E%3CmxCell%20id%3D%222%22%20value%3D%22%E9%98%9F%E5%BE%BD%22%20style%3D%22text%3Bhtml%3D1%3Balign%3Dcenter%3BverticalAlign%3Dmiddle%3BwhiteSpace%3Dwrap%3Brounded%3D0%3B%22%20vertex%3D%221%22%20parent%3D%221%22%3E%3CmxGeometry%20x%3D%22-710%22%20y%3D%22974%22%20width%3D%2260%22%20height%3D%2230%22%20as%3D%22geometry%22%2F%3E%3C%2FmxCell%3E%3C%2Froot%3E%3C%2FmxGraphMode&lt;/span&gt;" style="text;html=1;align=center;verticalAlign=middle;whiteSpace=wrap;rounded=0;" parent="1" vertex="1">
          <mxGeometry x="787" y="1158" width="60" height="30" as="geometry" />
        </mxCell>
        <mxCell id="uVKpOOJBm1KnTl84Ffg_-214" value="&lt;span style=&quot;font-size: 9px;&quot;&gt;选择比赛组别&lt;/span&gt;" style="text;html=1;align=center;verticalAlign=middle;whiteSpace=wrap;rounded=0;" parent="1" vertex="1">
          <mxGeometry x="886" y="1157.5" width="61" height="30" as="geometry" />
        </mxCell>
        <mxCell id="uVKpOOJBm1KnTl84Ffg_-215" value="" style="rounded=0;whiteSpace=wrap;html=1;" parent="1" vertex="1">
          <mxGeometry x="896" y="998" width="40" height="40" as="geometry" />
        </mxCell>
        <mxCell id="uVKpOOJBm1KnTl84Ffg_-216" value="客队&lt;span style=&quot;color: rgba(0, 0, 0, 0); font-family: monospace; font-size: 0px; text-align: start; text-wrap: nowrap;&quot;&gt;%3CmxGraphModel%3E%3Croot%3E%3CmxCell%20id%3D%220%22%2F%3E%3CmxCell%20id%3D%221%22%20parent%3D%220%22%2F%3E%3CmxCell%20id%3D%222%22%20value%3D%22%E9%98%9F%E5%BE%BD%22%20style%3D%22text%3Bhtml%3D1%3Balign%3Dcenter%3BverticalAlign%3Dmiddle%3BwhiteSpace%3Dwrap%3Brounded%3D0%3B%22%20vertex%3D%221%22%20parent%3D%221%22%3E%3CmxGeometry%20x%3D%22-710%22%20y%3D%22974%22%20width%3D%2260%22%20height%3D%2230%22%20as%3D%22geometry%22%2F%3E%3C%2FmxCell%3E%3C%2Froot%3E%3C%2FmxGraphModel%3E&lt;/span&gt;" style="text;html=1;align=center;verticalAlign=middle;whiteSpace=wrap;rounded=0;" parent="1" vertex="1">
          <mxGeometry x="886.5" y="1003" width="60" height="30" as="geometry" />
        </mxCell>
        <mxCell id="uVKpOOJBm1KnTl84Ffg_-219" value="" style="endArrow=none;html=1;rounded=0;exitX=0;exitY=0.223;exitDx=0;exitDy=0;exitPerimeter=0;" parent="1" edge="1">
          <mxGeometry width="50" height="50" relative="1" as="geometry">
            <mxPoint x="787" y="1190" as="sourcePoint" />
            <mxPoint x="947" y="1190" as="targetPoint" />
          </mxGeometry>
        </mxCell>
        <mxCell id="uVKpOOJBm1KnTl84Ffg_-220" value="" style="endArrow=none;html=1;rounded=0;exitX=0;exitY=0.223;exitDx=0;exitDy=0;exitPerimeter=0;entryX=0.992;entryY=0.225;entryDx=0;entryDy=0;entryPerimeter=0;" parent="1" edge="1">
          <mxGeometry width="50" height="50" relative="1" as="geometry">
            <mxPoint x="-378" y="1285" as="sourcePoint" />
            <mxPoint x="-219" y="1285" as="targetPoint" />
          </mxGeometry>
        </mxCell>
        <mxCell id="uVKpOOJBm1KnTl84Ffg_-221" value="" style="endArrow=none;html=1;rounded=0;exitX=0;exitY=0.223;exitDx=0;exitDy=0;exitPerimeter=0;" parent="1" edge="1">
          <mxGeometry width="50" height="50" relative="1" as="geometry">
            <mxPoint x="-568" y="1264" as="sourcePoint" />
            <mxPoint x="-408" y="1264" as="targetPoint" />
          </mxGeometry>
        </mxCell>
        <mxCell id="uVKpOOJBm1KnTl84Ffg_-222" value="" style="endArrow=none;html=1;rounded=0;exitX=0;exitY=0.223;exitDx=0;exitDy=0;exitPerimeter=0;entryX=0.992;entryY=0.225;entryDx=0;entryDy=0;entryPerimeter=0;" parent="1" edge="1">
          <mxGeometry width="50" height="50" relative="1" as="geometry">
            <mxPoint x="-758" y="1380" as="sourcePoint" />
            <mxPoint x="-599" y="1380" as="targetPoint" />
          </mxGeometry>
        </mxCell>
        <mxCell id="uVKpOOJBm1KnTl84Ffg_-223" value="" style="rounded=1;whiteSpace=wrap;html=1;" parent="1" vertex="1">
          <mxGeometry x="-349" y="1290.5" width="99.5" height="29.5" as="geometry" />
        </mxCell>
        <mxCell id="uVKpOOJBm1KnTl84Ffg_-224" value="确认修改" style="text;html=1;align=center;verticalAlign=middle;whiteSpace=wrap;rounded=0;" parent="1" vertex="1">
          <mxGeometry x="-330" y="1290.5" width="60" height="30" as="geometry" />
        </mxCell>
        <mxCell id="uVKpOOJBm1KnTl84Ffg_-225" style="edgeStyle=orthogonalEdgeStyle;rounded=0;orthogonalLoop=1;jettySize=auto;html=1;exitX=0.5;exitY=1;exitDx=0;exitDy=0;" parent="1" edge="1">
          <mxGeometry relative="1" as="geometry">
            <mxPoint x="-488.75" y="1309.5" as="sourcePoint" />
            <mxPoint x="-488.75" y="1309.5" as="targetPoint" />
          </mxGeometry>
        </mxCell>
        <mxCell id="uVKpOOJBm1KnTl84Ffg_-226" value="" style="rounded=1;whiteSpace=wrap;html=1;" parent="1" vertex="1">
          <mxGeometry x="-538.75" y="1270" width="99.5" height="29.5" as="geometry" />
        </mxCell>
        <mxCell id="uVKpOOJBm1KnTl84Ffg_-227" value="确认修改" style="text;html=1;align=center;verticalAlign=middle;whiteSpace=wrap;rounded=0;" parent="1" vertex="1">
          <mxGeometry x="-519.75" y="1270" width="60" height="30" as="geometry" />
        </mxCell>
        <mxCell id="uVKpOOJBm1KnTl84Ffg_-228" style="edgeStyle=orthogonalEdgeStyle;rounded=0;orthogonalLoop=1;jettySize=auto;html=1;exitX=0.5;exitY=1;exitDx=0;exitDy=0;" parent="1" edge="1">
          <mxGeometry relative="1" as="geometry">
            <mxPoint x="-680.25" y="1423.82" as="sourcePoint" />
            <mxPoint x="-680.25" y="1423.82" as="targetPoint" />
          </mxGeometry>
        </mxCell>
        <mxCell id="uVKpOOJBm1KnTl84Ffg_-229" value="" style="rounded=1;whiteSpace=wrap;html=1;" parent="1" vertex="1">
          <mxGeometry x="-730.25" y="1384.32" width="99.5" height="29.5" as="geometry" />
        </mxCell>
        <mxCell id="uVKpOOJBm1KnTl84Ffg_-230" value="确认修改" style="text;html=1;align=center;verticalAlign=middle;whiteSpace=wrap;rounded=0;" parent="1" vertex="1">
          <mxGeometry x="-711.25" y="1384.32" width="60" height="30" as="geometry" />
        </mxCell>
        <mxCell id="uVKpOOJBm1KnTl84Ffg_-231" style="edgeStyle=orthogonalEdgeStyle;rounded=0;orthogonalLoop=1;jettySize=auto;html=1;exitX=0.5;exitY=1;exitDx=0;exitDy=0;" parent="1" edge="1">
          <mxGeometry relative="1" as="geometry">
            <mxPoint x="866.75" y="1234.5" as="sourcePoint" />
            <mxPoint x="866.75" y="1234.5" as="targetPoint" />
          </mxGeometry>
        </mxCell>
        <mxCell id="uVKpOOJBm1KnTl84Ffg_-232" value="" style="rounded=1;whiteSpace=wrap;html=1;" parent="1" vertex="1">
          <mxGeometry x="816.75" y="1195" width="99.5" height="29.5" as="geometry" />
        </mxCell>
        <mxCell id="uVKpOOJBm1KnTl84Ffg_-233" value="确认创建" style="text;html=1;align=center;verticalAlign=middle;whiteSpace=wrap;rounded=0;" parent="1" vertex="1">
          <mxGeometry x="835.75" y="1195" width="60" height="30" as="geometry" />
        </mxCell>
        <mxCell id="uVKpOOJBm1KnTl84Ffg_-234" value="" style="endArrow=none;html=1;rounded=0;exitX=0;exitY=0.223;exitDx=0;exitDy=0;exitPerimeter=0;" parent="1" edge="1">
          <mxGeometry width="50" height="50" relative="1" as="geometry">
            <mxPoint x="595" y="1118.5" as="sourcePoint" />
            <mxPoint x="755" y="1118.5" as="targetPoint" />
          </mxGeometry>
        </mxCell>
        <mxCell id="uVKpOOJBm1KnTl84Ffg_-235" style="edgeStyle=orthogonalEdgeStyle;rounded=0;orthogonalLoop=1;jettySize=auto;html=1;exitX=0.5;exitY=1;exitDx=0;exitDy=0;" parent="1" edge="1">
          <mxGeometry relative="1" as="geometry">
            <mxPoint x="674.75" y="1163" as="sourcePoint" />
            <mxPoint x="674.75" y="1163" as="targetPoint" />
          </mxGeometry>
        </mxCell>
        <mxCell id="uVKpOOJBm1KnTl84Ffg_-236" value="" style="rounded=1;whiteSpace=wrap;html=1;" parent="1" vertex="1">
          <mxGeometry x="624.75" y="1123.5" width="99.5" height="29.5" as="geometry" />
        </mxCell>
        <mxCell id="uVKpOOJBm1KnTl84Ffg_-237" value="确认创建" style="text;html=1;align=center;verticalAlign=middle;whiteSpace=wrap;rounded=0;" parent="1" vertex="1">
          <mxGeometry x="643.75" y="1123.5" width="60" height="30" as="geometry" />
        </mxCell>
        <mxCell id="uVKpOOJBm1KnTl84Ffg_-238" value="" style="rounded=0;whiteSpace=wrap;html=1;" parent="1" vertex="1">
          <mxGeometry x="975" y="962" width="160" height="158" as="geometry" />
        </mxCell>
        <mxCell id="uVKpOOJBm1KnTl84Ffg_-239" value="" style="rounded=0;whiteSpace=wrap;html=1;" parent="1" vertex="1">
          <mxGeometry x="989" y="976" width="31" height="32" as="geometry" />
        </mxCell>
        <mxCell id="uVKpOOJBm1KnTl84Ffg_-240" value="赛事名称&amp;nbsp;&amp;nbsp;&lt;font style=&quot;font-size: 10px;&quot;&gt;&lt;u&gt;编辑&lt;/u&gt;&lt;/font&gt;" style="text;html=1;align=center;verticalAlign=middle;whiteSpace=wrap;rounded=0;" parent="1" vertex="1">
          <mxGeometry x="1040" y="978" width="90" height="30" as="geometry" />
        </mxCell>
        <mxCell id="uVKpOOJBm1KnTl84Ffg_-241" value="" style="endArrow=none;html=1;rounded=0;exitX=0;exitY=0.223;exitDx=0;exitDy=0;exitPerimeter=0;" parent="1" edge="1">
          <mxGeometry width="50" height="50" relative="1" as="geometry">
            <mxPoint x="975" y="1022.6599999999999" as="sourcePoint" />
            <mxPoint x="1135" y="1023" as="targetPoint" />
          </mxGeometry>
        </mxCell>
        <mxCell id="uVKpOOJBm1KnTl84Ffg_-242" value="赛事简介&lt;div&gt;...... &lt;u&gt;&lt;font style=&quot;font-size: 10px;&quot;&gt;编辑&lt;/font&gt;&lt;/u&gt;&lt;/div&gt;" style="text;html=1;align=center;verticalAlign=middle;whiteSpace=wrap;rounded=0;" parent="1" vertex="1">
          <mxGeometry x="974" y="1032" width="70" height="30" as="geometry" />
        </mxCell>
        <mxCell id="uVKpOOJBm1KnTl84Ffg_-254" style="edgeStyle=orthogonalEdgeStyle;rounded=0;orthogonalLoop=1;jettySize=auto;html=1;exitX=0.5;exitY=1;exitDx=0;exitDy=0;" parent="1" source="uVKpOOJBm1KnTl84Ffg_-238" target="uVKpOOJBm1KnTl84Ffg_-238" edge="1">
          <mxGeometry relative="1" as="geometry" />
        </mxCell>
        <mxCell id="uVKpOOJBm1KnTl84Ffg_-262" value="" style="endArrow=none;html=1;rounded=0;exitX=0;exitY=0.223;exitDx=0;exitDy=0;exitPerimeter=0;entryX=0.992;entryY=0.225;entryDx=0;entryDy=0;entryPerimeter=0;" parent="1" edge="1">
          <mxGeometry width="50" height="50" relative="1" as="geometry">
            <mxPoint x="976" y="1078" as="sourcePoint" />
            <mxPoint x="1135" y="1078" as="targetPoint" />
          </mxGeometry>
        </mxCell>
        <mxCell id="uVKpOOJBm1KnTl84Ffg_-263" value="" style="rounded=1;whiteSpace=wrap;html=1;" parent="1" vertex="1">
          <mxGeometry x="1005" y="1083.5" width="99.5" height="29.5" as="geometry" />
        </mxCell>
        <mxCell id="uVKpOOJBm1KnTl84Ffg_-264" value="确认创建" style="text;html=1;align=center;verticalAlign=middle;whiteSpace=wrap;rounded=0;" parent="1" vertex="1">
          <mxGeometry x="1024" y="1083.5" width="60" height="30" as="geometry" />
        </mxCell>
        <mxCell id="MnvEVy4aJMQu8oGoP_gj-3" value="" style="endArrow=none;html=1;rounded=0;exitX=0;exitY=0.223;exitDx=0;exitDy=0;exitPerimeter=0;" edge="1" parent="1">
          <mxGeometry width="50" height="50" relative="1" as="geometry">
            <mxPoint y="1930" as="sourcePoint" />
            <mxPoint x="160" y="1930.3400000000001" as="targetPoint" />
          </mxGeometry>
        </mxCell>
        <mxCell id="MnvEVy4aJMQu8oGoP_gj-4" value="" style="endArrow=none;html=1;rounded=0;exitX=0;exitY=0.223;exitDx=0;exitDy=0;exitPerimeter=0;" edge="1" parent="1">
          <mxGeometry width="50" height="50" relative="1" as="geometry">
            <mxPoint y="2050" as="sourcePoint" />
            <mxPoint x="160" y="2050.34" as="targetPoint" />
          </mxGeometry>
        </mxCell>
        <mxCell id="MnvEVy4aJMQu8oGoP_gj-5" value="" style="endArrow=none;html=1;rounded=0;exitX=0;exitY=0.223;exitDx=0;exitDy=0;exitPerimeter=0;" edge="1" parent="1">
          <mxGeometry width="50" height="50" relative="1" as="geometry">
            <mxPoint y="1990" as="sourcePoint" />
            <mxPoint x="160" y="1990.3400000000001" as="targetPoint" />
          </mxGeometry>
        </mxCell>
        <mxCell id="MnvEVy4aJMQu8oGoP_gj-6" value="player_card_small" style="rounded=1;whiteSpace=wrap;html=1;fillColor=#dae8fc;strokeColor=#6c8ebf;" vertex="1" parent="1">
          <mxGeometry x="-657" y="-780" width="140" height="40" as="geometry" />
        </mxCell>
        <mxCell id="MnvEVy4aJMQu8oGoP_gj-8" value="头像" style="ellipse;whiteSpace=wrap;html=1;aspect=fixed;" vertex="1" parent="1">
          <mxGeometry x="-618" y="-723" width="63" height="63" as="geometry" />
        </mxCell>
        <mxCell id="MnvEVy4aJMQu8oGoP_gj-9" value="姓名" style="text;html=1;align=center;verticalAlign=middle;whiteSpace=wrap;rounded=0;" vertex="1" parent="1">
          <mxGeometry x="-616" y="-665" width="60" height="30" as="geometry" />
        </mxCell>
        <mxCell id="MnvEVy4aJMQu8oGoP_gj-10" value="match_card_small" style="rounded=1;whiteSpace=wrap;html=1;fillColor=#dae8fc;strokeColor=#6c8ebf;" vertex="1" parent="1">
          <mxGeometry x="-67" y="-778" width="170.5" height="40" as="geometry" />
        </mxCell>
        <mxCell id="MnvEVy4aJMQu8oGoP_gj-18" value="" style="rounded=0;whiteSpace=wrap;html=1;" vertex="1" parent="1">
          <mxGeometry x="-62.5" y="-720" width="162" height="92" as="geometry" />
        </mxCell>
        <mxCell id="MnvEVy4aJMQu8oGoP_gj-19" value="主队" style="rounded=0;whiteSpace=wrap;html=1;" vertex="1" parent="1">
          <mxGeometry x="-44.5" y="-673.5" width="39.5" height="35.5" as="geometry" />
        </mxCell>
        <mxCell id="MnvEVy4aJMQu8oGoP_gj-20" value="&lt;font style=&quot;font-size: 9px;&quot;&gt;yyyy-mm-dd hh:mm:ss&lt;/font&gt;" style="text;html=1;align=center;verticalAlign=middle;whiteSpace=wrap;rounded=0;" vertex="1" parent="1">
          <mxGeometry x="-61.5" y="-708.5" width="160" height="11" as="geometry" />
        </mxCell>
        <mxCell id="MnvEVy4aJMQu8oGoP_gj-21" value="&lt;font style=&quot;font-size: 9px;&quot;&gt;比赛类别 比赛组别&lt;/font&gt;" style="text;html=1;align=center;verticalAlign=middle;whiteSpace=wrap;rounded=0;" vertex="1" parent="1">
          <mxGeometry x="-60.5" y="-693" width="160" height="11" as="geometry" />
        </mxCell>
        <mxCell id="MnvEVy4aJMQu8oGoP_gj-22" value="&lt;font style=&quot;font-size: 9px;&quot;&gt;1 : 1&lt;/font&gt;&lt;div&gt;&lt;font style=&quot;font-size: 6px;&quot;&gt;(3 : 4)&lt;/font&gt;&lt;/div&gt;" style="text;html=1;align=center;verticalAlign=middle;whiteSpace=wrap;rounded=0;" vertex="1" parent="1">
          <mxGeometry x="-11" y="-673.5" width="60" height="30" as="geometry" />
        </mxCell>
        <mxCell id="MnvEVy4aJMQu8oGoP_gj-23" value="客队" style="rounded=0;whiteSpace=wrap;html=1;" vertex="1" parent="1">
          <mxGeometry x="43.5" y="-673" width="40" height="35" as="geometry" />
        </mxCell>
        <mxCell id="MnvEVy4aJMQu8oGoP_gj-26" value="match_card_big" style="rounded=1;whiteSpace=wrap;html=1;fillColor=#dae8fc;strokeColor=#6c8ebf;" vertex="1" parent="1">
          <mxGeometry x="147.5" y="-778" width="170" height="40" as="geometry" />
        </mxCell>
        <mxCell id="MnvEVy4aJMQu8oGoP_gj-27" value="" style="rounded=0;whiteSpace=wrap;html=1;" vertex="1" parent="1">
          <mxGeometry x="130.5" y="-720" width="216" height="130" as="geometry" />
        </mxCell>
        <mxCell id="MnvEVy4aJMQu8oGoP_gj-28" value="主队" style="rounded=0;whiteSpace=wrap;html=1;" vertex="1" parent="1">
          <mxGeometry x="140.5" y="-670.25" width="60" height="59.75" as="geometry" />
        </mxCell>
        <mxCell id="MnvEVy4aJMQu8oGoP_gj-29" value="&lt;font style=&quot;font-size: 10px;&quot;&gt;&lt;font style=&quot;&quot;&gt;yyyy-mm-dd hh:mm:ss&amp;nbsp; &amp;nbsp;&lt;/font&gt;比赛类别 比赛组别&lt;/font&gt;" style="text;html=1;align=center;verticalAlign=middle;whiteSpace=wrap;rounded=0;" vertex="1" parent="1">
          <mxGeometry x="106.5" y="-713.25" width="249" height="26.5" as="geometry" />
        </mxCell>
        <mxCell id="MnvEVy4aJMQu8oGoP_gj-31" value="&lt;font style=&quot;font-size: 18px;&quot;&gt;1 : 1&lt;/font&gt;&lt;div&gt;&lt;font style=&quot;font-size: 12px;&quot;&gt;(3 : 4)&lt;/font&gt;&lt;/div&gt;" style="text;html=1;align=center;verticalAlign=middle;whiteSpace=wrap;rounded=0;" vertex="1" parent="1">
          <mxGeometry x="207.5" y="-657.5" width="60" height="30" as="geometry" />
        </mxCell>
        <mxCell id="MnvEVy4aJMQu8oGoP_gj-32" value="客队" style="rounded=0;whiteSpace=wrap;html=1;" vertex="1" parent="1">
          <mxGeometry x="276" y="-670.25" width="61" height="60" as="geometry" />
        </mxCell>
        <mxCell id="MnvEVy4aJMQu8oGoP_gj-35" value="event_card_big" style="rounded=1;whiteSpace=wrap;html=1;fillColor=#dae8fc;strokeColor=#6c8ebf;" vertex="1" parent="1">
          <mxGeometry x="412" y="-776" width="149" height="40" as="geometry" />
        </mxCell>
        <mxCell id="MnvEVy4aJMQu8oGoP_gj-36" value="&lt;font style=&quot;font-size: 10px;&quot;&gt;赛事标志&lt;/font&gt;" style="rounded=0;whiteSpace=wrap;html=1;" vertex="1" parent="1">
          <mxGeometry x="395.75" y="-708.5" width="50.5" height="47.5" as="geometry" />
        </mxCell>
        <mxCell id="MnvEVy4aJMQu8oGoP_gj-37" value="赛事名称" style="text;html=1;align=center;verticalAlign=middle;whiteSpace=wrap;rounded=0;" vertex="1" parent="1">
          <mxGeometry x="479" y="-701.5" width="82" height="30" as="geometry" />
        </mxCell>
        <mxCell id="MnvEVy4aJMQu8oGoP_gj-45" value="team_card_small" style="rounded=1;whiteSpace=wrap;html=1;fillColor=#dae8fc;strokeColor=#6c8ebf;" vertex="1" parent="1">
          <mxGeometry x="-482.5" y="-778" width="161.5" height="40" as="geometry" />
        </mxCell>
        <mxCell id="MnvEVy4aJMQu8oGoP_gj-58" value="头像" style="ellipse;whiteSpace=wrap;html=1;aspect=fixed;" vertex="1" parent="1">
          <mxGeometry x="15" y="153" width="50" height="50" as="geometry" />
        </mxCell>
        <mxCell id="MnvEVy4aJMQu8oGoP_gj-47" value="" style="rounded=0;whiteSpace=wrap;html=1;" vertex="1" parent="1">
          <mxGeometry x="-446.75" y="-725" width="90" height="91.5" as="geometry" />
        </mxCell>
        <mxCell id="MnvEVy4aJMQu8oGoP_gj-49" value="队名" style="text;html=1;align=center;verticalAlign=middle;whiteSpace=wrap;rounded=0;" vertex="1" parent="1">
          <mxGeometry x="-432" y="-661" width="60" height="30" as="geometry" />
        </mxCell>
        <mxCell id="MnvEVy4aJMQu8oGoP_gj-51" value="队徽" style="rounded=0;whiteSpace=wrap;html=1;" vertex="1" parent="1">
          <mxGeometry x="-431" y="-713.25" width="59" height="56.5" as="geometry" />
        </mxCell>
        <mxCell id="MnvEVy4aJMQu8oGoP_gj-52" value="team_card_big" style="rounded=1;whiteSpace=wrap;html=1;fillColor=#dae8fc;strokeColor=#6c8ebf;" vertex="1" parent="1">
          <mxGeometry x="-288.75" y="-778" width="161.5" height="40" as="geometry" />
        </mxCell>
        <mxCell id="MnvEVy4aJMQu8oGoP_gj-53" value="" style="rounded=0;whiteSpace=wrap;html=1;" vertex="1" parent="1">
          <mxGeometry x="-308.75" y="-717.5" width="216" height="65.5" as="geometry" />
        </mxCell>
        <mxCell id="MnvEVy4aJMQu8oGoP_gj-54" value="&lt;font style=&quot;font-size: 10px;&quot;&gt;队徽&lt;/font&gt;" style="rounded=0;whiteSpace=wrap;html=1;" vertex="1" parent="1">
          <mxGeometry x="-297" y="-708.5" width="50.5" height="47.5" as="geometry" />
        </mxCell>
        <mxCell id="MnvEVy4aJMQu8oGoP_gj-55" value="&lt;font style=&quot;font-size: 14px;&quot;&gt;队名&lt;/font&gt;" style="text;html=1;align=center;verticalAlign=middle;whiteSpace=wrap;rounded=0;" vertex="1" parent="1">
          <mxGeometry x="-239.75" y="-711.25" width="82" height="30" as="geometry" />
        </mxCell>
        <mxCell id="MnvEVy4aJMQu8oGoP_gj-56" value="11名球员" style="text;html=1;align=center;verticalAlign=middle;whiteSpace=wrap;rounded=0;" vertex="1" parent="1">
          <mxGeometry x="-240.75" y="-686.75" width="101" height="30" as="geometry" />
        </mxCell>
        <mxCell id="MnvEVy4aJMQu8oGoP_gj-59" value="姓名" style="text;html=1;align=center;verticalAlign=middle;whiteSpace=wrap;rounded=0;" vertex="1" parent="1">
          <mxGeometry x="65" y="163" width="60" height="30" as="geometry" />
        </mxCell>
        <mxCell id="MnvEVy4aJMQu8oGoP_gj-60" value="头像" style="ellipse;whiteSpace=wrap;html=1;aspect=fixed;" vertex="1" parent="1">
          <mxGeometry x="-200" y="145" width="50" height="50" as="geometry" />
        </mxCell>
        <mxCell id="MnvEVy4aJMQu8oGoP_gj-61" value="姓名" style="text;html=1;align=center;verticalAlign=middle;whiteSpace=wrap;rounded=0;" vertex="1" parent="1">
          <mxGeometry x="-150" y="155" width="60" height="30" as="geometry" />
        </mxCell>
        <mxCell id="MnvEVy4aJMQu8oGoP_gj-62" value="头像" style="ellipse;whiteSpace=wrap;html=1;aspect=fixed;" vertex="1" parent="1">
          <mxGeometry x="414" y="146" width="50" height="50" as="geometry" />
        </mxCell>
        <mxCell id="MnvEVy4aJMQu8oGoP_gj-63" value="姓名" style="text;html=1;align=center;verticalAlign=middle;whiteSpace=wrap;rounded=0;" vertex="1" parent="1">
          <mxGeometry x="464" y="157" width="60" height="30" as="geometry" />
        </mxCell>
        <mxCell id="MnvEVy4aJMQu8oGoP_gj-64" value="" style="rounded=0;whiteSpace=wrap;html=1;" vertex="1" parent="1">
          <mxGeometry x="-200" y="-460" width="160" height="200" as="geometry" />
        </mxCell>
        <mxCell id="MnvEVy4aJMQu8oGoP_gj-65" value="" style="rounded=1;whiteSpace=wrap;html=1;" vertex="1" parent="1">
          <mxGeometry x="-190" y="-455" width="110" height="25" as="geometry" />
        </mxCell>
        <mxCell id="MnvEVy4aJMQu8oGoP_gj-66" value="&lt;font style=&quot;font-size: 10px;&quot;&gt;搜索&lt;/font&gt;" style="rounded=1;whiteSpace=wrap;html=1;" vertex="1" parent="1">
          <mxGeometry x="-70" y="-455" width="25.5" height="25" as="geometry" />
        </mxCell>
        <mxCell id="MnvEVy4aJMQu8oGoP_gj-69" value="" style="endArrow=none;html=1;rounded=0;exitX=0;exitY=0.25;exitDx=0;exitDy=0;entryX=1;entryY=0.25;entryDx=0;entryDy=0;" edge="1" parent="1">
          <mxGeometry width="50" height="50" relative="1" as="geometry">
            <mxPoint x="-200" y="-385.63" as="sourcePoint" />
            <mxPoint x="-40" y="-385.63" as="targetPoint" />
          </mxGeometry>
        </mxCell>
        <mxCell id="MnvEVy4aJMQu8oGoP_gj-70" value="" style="endArrow=none;html=1;rounded=0;exitX=0;exitY=0.25;exitDx=0;exitDy=0;entryX=1;entryY=0.25;entryDx=0;entryDy=0;" edge="1" parent="1">
          <mxGeometry width="50" height="50" relative="1" as="geometry">
            <mxPoint x="-200" y="-320" as="sourcePoint" />
            <mxPoint x="-40" y="-320" as="targetPoint" />
          </mxGeometry>
        </mxCell>
        <mxCell id="MnvEVy4aJMQu8oGoP_gj-71" value="" style="endArrow=none;html=1;rounded=0;exitX=0;exitY=0.25;exitDx=0;exitDy=0;entryX=1;entryY=0.25;entryDx=0;entryDy=0;" edge="1" parent="1">
          <mxGeometry width="50" height="50" relative="1" as="geometry">
            <mxPoint x="-200" y="-350" as="sourcePoint" />
            <mxPoint x="-40" y="-350" as="targetPoint" />
          </mxGeometry>
        </mxCell>
        <mxCell id="MnvEVy4aJMQu8oGoP_gj-72" value="" style="endArrow=none;html=1;rounded=0;exitX=0;exitY=0.25;exitDx=0;exitDy=0;entryX=1;entryY=0.25;entryDx=0;entryDy=0;" edge="1" parent="1">
          <mxGeometry width="50" height="50" relative="1" as="geometry">
            <mxPoint x="-200" y="-420" as="sourcePoint" />
            <mxPoint x="-40" y="-420" as="targetPoint" />
          </mxGeometry>
        </mxCell>
        <mxCell id="MnvEVy4aJMQu8oGoP_gj-74" value="搜索结&lt;span style=&quot;color: rgba(0, 0, 0, 0); font-family: monospace; font-size: 0px; text-align: start; text-wrap: nowrap;&quot;&gt;%3CmxGraphModel%3E%3Croot%3E%3CmxCell%20id%3D%220%22%2F%3E%3CmxCell%20id%3D%221%22%20parent%3D%220%22%2F%3E%3CmxCell%20id%3D%222%22%20value%3D%22%22%20style%3D%22endArrow%3Dnone%3Bhtml%3D1%3Brounded%3D0%3BexitX%3D0%3BexitY%3D0.25%3BexitDx%3D0%3BexitDy%3D0%3BentryX%3D1%3BentryY%3D0.25%3BentryDx%3D0%3BentryDy%3D0%3B%22%20edge%3D%221%22%20parent%3D%221%22%3E%3CmxGeometry%20width%3D%2250%22%20height%3D%2250%22%20relative%3D%221%22%20as%3D%22geometry%22%3E%3CmxPoint%20x%3D%22-200%22%20y%3D%22-400%22%20as%3D%22sourcePoint%22%2F%3E%3CmxPoint%20x%3D%22-40%22%20y%3D%22-400%22%20as%3D%22targetPoint%22%2F%3E%3C%2FmxGeometry%3E%3C%2FmxCell%3E%3C%2Froot%3E%3C%2FmxGraphModel%3E&lt;/span&gt;果1" style="text;html=1;align=center;verticalAlign=middle;whiteSpace=wrap;rounded=0;" vertex="1" parent="1">
          <mxGeometry x="-190" y="-420" width="60" height="30" as="geometry" />
        </mxCell>
        <mxCell id="MnvEVy4aJMQu8oGoP_gj-75" value="搜索结&lt;span style=&quot;color: rgba(0, 0, 0, 0); font-family: monospace; font-size: 0px; text-align: start; text-wrap: nowrap;&quot;&gt;%3CmxGraphModel%3E%3Croot%3E%3CmxCell%20id%3D%220%22%2F%3E%3CmxCell%20id%3D%221%22%20parent%3D%220%22%2F%3E%3CmxCell%20id%3D%222%22%20value%3D%22%22%20style%3D%22endArrow%3Dnone%3Bhtml%3D1%3Brounded%3D0%3BexitX%3D0%3BexitY%3D0.25%3BexitDx%3D0%3BexitDy%3D0%3BentryX%3D1%3BentryY%3D0.25%3BentryDx%3D0%3BentryDy%3D0%3B%22%20edge%3D%221%22%20parent%3D%221%22%3E%3CmxGeometry%20width%3D%2250%22%20height%3D%2250%22%20relative%3D%221%22%20as%3D%22geometry%22%3E%3CmxPoint%20x%3D%22-200%22%20y%3D%22-400%22%20as%3D%22sourcePoint%22%2F%3E%3CmxPoint%20x%3D%22-40%22%20y%3D%22-400%22%20as%3D%22targetPoint%22%2F%3E%3C%2FmxGeometry%3E%3C%2FmxCell%3E%3C%2Froot%3E%3C%2FmxGraphModel%3E&lt;/span&gt;果2" style="text;html=1;align=center;verticalAlign=middle;whiteSpace=wrap;rounded=0;" vertex="1" parent="1">
          <mxGeometry x="-190" y="-380" width="60" height="30" as="geometry" />
        </mxCell>
        <mxCell id="MnvEVy4aJMQu8oGoP_gj-76" value="搜索结&lt;span style=&quot;color: rgba(0, 0, 0, 0); font-family: monospace; font-size: 0px; text-align: start; text-wrap: nowrap;&quot;&gt;%3CmxGraphModel%3E%3Croot%3E%3CmxCell%20id%3D%220%22%2F%3E%3CmxCell%20id%3D%221%22%20parent%3D%220%22%2F%3E%3CmxCell%20id%3D%222%22%20value%3D%22%22%20style%3D%22endArrow%3Dnone%3Bhtml%3D1%3Brounded%3D0%3BexitX%3D0%3BexitY%3D0.25%3BexitDx%3D0%3BexitDy%3D0%3BentryX%3D1%3BentryY%3D0.25%3BentryDx%3D0%3BentryDy%3D0%3B%22%20edge%3D%221%22%20parent%3D%221%22%3E%3CmxGeometry%20width%3D%2250%22%20height%3D%2250%22%20relative%3D%221%22%20as%3D%22geometry%22%3E%3CmxPoint%20x%3D%22-200%22%20y%3D%22-400%22%20as%3D%22sourcePoint%22%2F%3E%3CmxPoint%20x%3D%22-40%22%20y%3D%22-400%22%20as%3D%22targetPoint%22%2F%3E%3C%2FmxGeometry%3E%3C%2FmxCell%3E%3C%2Froot%3E%3C%2FmxGraphModel%3E&lt;/span&gt;果3" style="text;html=1;align=center;verticalAlign=middle;whiteSpace=wrap;rounded=0;" vertex="1" parent="1">
          <mxGeometry x="-190" y="-350" width="60" height="30" as="geometry" />
        </mxCell>
        <mxCell id="MnvEVy4aJMQu8oGoP_gj-77" value="搜索结&lt;span style=&quot;color: rgba(0, 0, 0, 0); font-family: monospace; font-size: 0px; text-align: start; text-wrap: nowrap;&quot;&gt;%3CmxGraphModel%3E%3Croot%3E%3CmxCell%20id%3D%220%22%2F%3E%3CmxCell%20id%3D%221%22%20parent%3D%220%22%2F%3E%3CmxCell%20id%3D%222%22%20value%3D%22%22%20style%3D%22endArrow%3Dnone%3Bhtml%3D1%3Brounded%3D0%3BexitX%3D0%3BexitY%3D0.25%3BexitDx%3D0%3BexitDy%3D0%3BentryX%3D1%3BentryY%3D0.25%3BentryDx%3D0%3BentryDy%3D0%3B%22%20edge%3D%221%22%20parent%3D%221%22%3E%3CmxGeometry%20width%3D%2250%22%20height%3D%2250%22%20relative%3D%221%22%20as%3D%22geometry%22%3E%3CmxPoint%20x%3D%22-200%22%20y%3D%22-400%22%20as%3D%22sourcePoint%22%2F%3E%3CmxPoint%20x%3D%22-40%22%20y%3D%22-400%22%20as%3D%22targetPoint%22%2F%3E%3C%2FmxGeometry%3E%3C%2FmxCell%3E%3C%2Froot%3E%3C%2FmxGraphModel%3E&lt;/span&gt;果4" style="text;html=1;align=center;verticalAlign=middle;whiteSpace=wrap;rounded=0;" vertex="1" parent="1">
          <mxGeometry x="-190" y="-322" width="60" height="30" as="geometry" />
        </mxCell>
        <mxCell id="MnvEVy4aJMQu8oGoP_gj-78" value="搜索结&lt;span style=&quot;color: rgba(0, 0, 0, 0); font-family: monospace; font-size: 0px; text-align: start; text-wrap: nowrap;&quot;&gt;%3CmxGraphModel%3E%3Croot%3E%3CmxCell%20id%3D%220%22%2F%3E%3CmxCell%20id%3D%221%22%20parent%3D%220%22%2F%3E%3CmxCell%20id%3D%222%22%20value%3D%22%22%20style%3D%22endArrow%3Dnone%3Bhtml%3D1%3Brounded%3D0%3BexitX%3D0%3BexitY%3D0.25%3BexitDx%3D0%3BexitDy%3D0%3BentryX%3D1%3BentryY%3D0.25%3BentryDx%3D0%3BentryDy%3D0%3B%22%20edge%3D%221%22%20parent%3D%221%22%3E%3CmxGeometry%20width%3D%2250%22%20height%3D%2250%22%20relative%3D%221%22%20as%3D%22geometry%22%3E%3CmxPoint%20x%3D%22-200%22%20y%3D%22-400%22%20as%3D%22sourcePoint%22%2F%3E%3CmxPoint%20x%3D%22-40%22%20y%3D%22-400%22%20as%3D%22targetPoint%22%2F%3E%3C%2FmxGeometry%3E%3C%2FmxCell%3E%3C%2Froot%3E%3C%2FmxGraphModel%3E&lt;/span&gt;果5" style="text;html=1;align=center;verticalAlign=middle;whiteSpace=wrap;rounded=0;" vertex="1" parent="1">
          <mxGeometry x="-190" y="-290" width="60" height="30" as="geometry" />
        </mxCell>
        <mxCell id="MnvEVy4aJMQu8oGoP_gj-80" value="" style="endArrow=none;html=1;rounded=0;exitX=0;exitY=0.25;exitDx=0;exitDy=0;entryX=1;entryY=0.25;entryDx=0;entryDy=0;" edge="1" parent="1">
          <mxGeometry width="50" height="50" relative="1" as="geometry">
            <mxPoint x="-200" y="-290" as="sourcePoint" />
            <mxPoint x="-40" y="-290" as="targetPoint" />
          </mxGeometry>
        </mxCell>
        <mxCell id="MnvEVy4aJMQu8oGoP_gj-81" value="球队1" style="rounded=1;whiteSpace=wrap;html=1;" vertex="1" parent="1">
          <mxGeometry x="10" y="290" width="40" height="40" as="geometry" />
        </mxCell>
        <mxCell id="MnvEVy4aJMQu8oGoP_gj-82" value="球队3" style="rounded=1;whiteSpace=wrap;html=1;" vertex="1" parent="1">
          <mxGeometry x="110" y="290" width="40" height="40" as="geometry" />
        </mxCell>
        <mxCell id="MnvEVy4aJMQu8oGoP_gj-83" value="球队2" style="rounded=1;whiteSpace=wrap;html=1;" vertex="1" parent="1">
          <mxGeometry x="60" y="290" width="40" height="40" as="geometry" />
        </mxCell>
        <mxCell id="MnvEVy4aJMQu8oGoP_gj-84" value="" style="rounded=0;whiteSpace=wrap;html=1;" vertex="1" parent="1">
          <mxGeometry x="20.5" y="513" width="120" height="67" as="geometry" />
        </mxCell>
        <mxCell id="MnvEVy4aJMQu8oGoP_gj-85" value="" style="rounded=0;whiteSpace=wrap;html=1;" vertex="1" parent="1">
          <mxGeometry x="27" y="540" width="30" height="29" as="geometry" />
        </mxCell>
        <mxCell id="MnvEVy4aJMQu8oGoP_gj-86" value="&lt;font style=&quot;font-size: 9px;&quot;&gt;yyyy-mm-dd hh:mm:ss&lt;/font&gt;" style="text;html=1;align=center;verticalAlign=middle;whiteSpace=wrap;rounded=0;" vertex="1" parent="1">
          <mxGeometry x="2" y="512" width="160" height="11" as="geometry" />
        </mxCell>
        <mxCell id="MnvEVy4aJMQu8oGoP_gj-87" value="&lt;font style=&quot;font-size: 9px;&quot;&gt;比赛类别 比赛组别&lt;/font&gt;" style="text;html=1;align=center;verticalAlign=middle;whiteSpace=wrap;rounded=0;" vertex="1" parent="1">
          <mxGeometry x="2" y="525" width="160" height="11" as="geometry" />
        </mxCell>
        <mxCell id="MnvEVy4aJMQu8oGoP_gj-88" value="&lt;font style=&quot;font-size: 9px;&quot;&gt;1 : 1&lt;/font&gt;&lt;div&gt;&lt;font style=&quot;font-size: 6px;&quot;&gt;(3 : 4)&lt;/font&gt;&lt;/div&gt;" style="text;html=1;align=center;verticalAlign=middle;whiteSpace=wrap;rounded=0;" vertex="1" parent="1">
          <mxGeometry x="51.5" y="540" width="60" height="30" as="geometry" />
        </mxCell>
        <mxCell id="MnvEVy4aJMQu8oGoP_gj-89" value="" style="rounded=0;whiteSpace=wrap;html=1;" vertex="1" parent="1">
          <mxGeometry x="105" y="540" width="30" height="29" as="geometry" />
        </mxCell>
        <mxCell id="MnvEVy4aJMQu8oGoP_gj-90" value="我的赛程&lt;br&gt;（横向排列、可滑动）" style="text;html=1;align=center;verticalAlign=middle;whiteSpace=wrap;rounded=0;" vertex="1" parent="1">
          <mxGeometry x="14" y="570" width="130" height="60" as="geometry" />
        </mxCell>
        <mxCell id="MnvEVy4aJMQu8oGoP_gj-91" value="" style="rounded=0;whiteSpace=wrap;html=1;" vertex="1" parent="1">
          <mxGeometry x="6" y="660" width="146" height="50" as="geometry" />
        </mxCell>
        <mxCell id="MnvEVy4aJMQu8oGoP_gj-92" value="" style="rounded=0;whiteSpace=wrap;html=1;" vertex="1" parent="1">
          <mxGeometry x="16" y="668.25" width="32.12" height="33.75" as="geometry" />
        </mxCell>
        <mxCell id="MnvEVy4aJMQu8oGoP_gj-93" value="赛事名称" style="text;html=1;align=center;verticalAlign=middle;whiteSpace=wrap;rounded=0;" vertex="1" parent="1">
          <mxGeometry x="65" y="671.63" width="60" height="16.75" as="geometry" />
        </mxCell>
        <mxCell id="MnvEVy4aJMQu8oGoP_gj-95" value="球队1" style="rounded=1;whiteSpace=wrap;html=1;" vertex="1" parent="1">
          <mxGeometry x="10.5" y="1048" width="40" height="40" as="geometry" />
        </mxCell>
        <mxCell id="MnvEVy4aJMQu8oGoP_gj-96" value="球队3" style="rounded=1;whiteSpace=wrap;html=1;" vertex="1" parent="1">
          <mxGeometry x="110.5" y="1048" width="40" height="40" as="geometry" />
        </mxCell>
        <mxCell id="MnvEVy4aJMQu8oGoP_gj-97" value="球队2" style="rounded=1;whiteSpace=wrap;html=1;" vertex="1" parent="1">
          <mxGeometry x="60.5" y="1048" width="40" height="40" as="geometry" />
        </mxCell>
        <mxCell id="MnvEVy4aJMQu8oGoP_gj-98" value="" style="rounded=0;whiteSpace=wrap;html=1;" vertex="1" parent="1">
          <mxGeometry x="20.5" y="1285" width="120" height="67" as="geometry" />
        </mxCell>
        <mxCell id="MnvEVy4aJMQu8oGoP_gj-99" value="" style="rounded=0;whiteSpace=wrap;html=1;" vertex="1" parent="1">
          <mxGeometry x="27" y="1312" width="30" height="29" as="geometry" />
        </mxCell>
        <mxCell id="MnvEVy4aJMQu8oGoP_gj-100" value="&lt;font style=&quot;font-size: 9px;&quot;&gt;yyyy-mm-dd hh:mm:ss&lt;/font&gt;" style="text;html=1;align=center;verticalAlign=middle;whiteSpace=wrap;rounded=0;" vertex="1" parent="1">
          <mxGeometry x="2" y="1284" width="160" height="11" as="geometry" />
        </mxCell>
        <mxCell id="MnvEVy4aJMQu8oGoP_gj-101" value="&lt;font style=&quot;font-size: 9px;&quot;&gt;比赛类别 比赛组别&lt;/font&gt;" style="text;html=1;align=center;verticalAlign=middle;whiteSpace=wrap;rounded=0;" vertex="1" parent="1">
          <mxGeometry x="2" y="1297" width="160" height="11" as="geometry" />
        </mxCell>
        <mxCell id="MnvEVy4aJMQu8oGoP_gj-102" value="&lt;font style=&quot;font-size: 9px;&quot;&gt;1 : 1&lt;/font&gt;&lt;div&gt;&lt;font style=&quot;font-size: 6px;&quot;&gt;(3 : 4)&lt;/font&gt;&lt;/div&gt;" style="text;html=1;align=center;verticalAlign=middle;whiteSpace=wrap;rounded=0;" vertex="1" parent="1">
          <mxGeometry x="51.5" y="1312" width="60" height="30" as="geometry" />
        </mxCell>
        <mxCell id="MnvEVy4aJMQu8oGoP_gj-103" value="" style="rounded=0;whiteSpace=wrap;html=1;" vertex="1" parent="1">
          <mxGeometry x="105" y="1312" width="30" height="29" as="geometry" />
        </mxCell>
        <mxCell id="MnvEVy4aJMQu8oGoP_gj-104" value="管理的友谊赛&lt;br style=&quot;border-color: var(--border-color);&quot;&gt;（横向排列、可滑动）&lt;br&gt;&lt;div&gt;&lt;br&gt;&lt;/div&gt;" style="text;html=1;align=center;verticalAlign=middle;whiteSpace=wrap;rounded=0;" vertex="1" parent="1">
          <mxGeometry x="18" y="1363" width="128" height="57" as="geometry" />
        </mxCell>
        <mxCell id="MnvEVy4aJMQu8oGoP_gj-105" value="" style="rounded=0;whiteSpace=wrap;html=1;" vertex="1" parent="1">
          <mxGeometry x="7" y="1470" width="146" height="50" as="geometry" />
        </mxCell>
        <mxCell id="MnvEVy4aJMQu8oGoP_gj-106" value="" style="rounded=0;whiteSpace=wrap;html=1;" vertex="1" parent="1">
          <mxGeometry x="17" y="1478.25" width="32.12" height="33.75" as="geometry" />
        </mxCell>
        <mxCell id="MnvEVy4aJMQu8oGoP_gj-107" value="赛事名称" style="text;html=1;align=center;verticalAlign=middle;whiteSpace=wrap;rounded=0;" vertex="1" parent="1">
          <mxGeometry x="66" y="1481.63" width="60" height="16.75" as="geometry" />
        </mxCell>
        <mxCell id="MnvEVy4aJMQu8oGoP_gj-108" value="管理的赛事&lt;br style=&quot;border-color: var(--border-color);&quot;&gt;（纵向排列）" style="text;html=1;align=center;verticalAlign=middle;whiteSpace=wrap;rounded=0;" vertex="1" parent="1">
          <mxGeometry x="-3" y="1512" width="168" height="52.5" as="geometry" />
        </mxCell>
        <mxCell id="MnvEVy4aJMQu8oGoP_gj-109" value="" style="rounded=0;whiteSpace=wrap;html=1;" vertex="1" parent="1">
          <mxGeometry x="6.5" y="-122.5" width="146" height="50" as="geometry" />
        </mxCell>
        <mxCell id="MnvEVy4aJMQu8oGoP_gj-110" value="" style="rounded=0;whiteSpace=wrap;html=1;" vertex="1" parent="1">
          <mxGeometry x="16.5" y="-114.25" width="32.12" height="33.75" as="geometry" />
        </mxCell>
        <mxCell id="MnvEVy4aJMQu8oGoP_gj-111" value="赛事名称" style="text;html=1;align=center;verticalAlign=middle;whiteSpace=wrap;rounded=0;" vertex="1" parent="1">
          <mxGeometry x="65.5" y="-110.87" width="60" height="16.75" as="geometry" />
        </mxCell>
        <mxCell id="MnvEVy4aJMQu8oGoP_gj-112" value="已关注的球员&lt;br&gt;（横向排列、可滑动）" style="text;html=1;align=center;verticalAlign=middle;whiteSpace=wrap;rounded=0;" vertex="1" parent="1">
          <mxGeometry x="16" y="-200" width="125" height="40" as="geometry" />
        </mxCell>
        <mxCell id="MnvEVy4aJMQu8oGoP_gj-113" value="已关注的赛事&lt;br&gt;（竖向排列）" style="text;html=1;align=center;verticalAlign=middle;whiteSpace=wrap;rounded=0;" vertex="1" parent="1">
          <mxGeometry x="31" y="-70" width="94" height="30" as="geometry" />
        </mxCell>
        <mxCell id="MnvEVy4aJMQu8oGoP_gj-114" value="球员1" style="rounded=1;whiteSpace=wrap;html=1;" vertex="1" parent="1">
          <mxGeometry x="10" y="-240" width="40" height="40" as="geometry" />
        </mxCell>
        <mxCell id="MnvEVy4aJMQu8oGoP_gj-115" value="球员3" style="rounded=1;whiteSpace=wrap;html=1;" vertex="1" parent="1">
          <mxGeometry x="110" y="-240" width="40" height="40" as="geometry" />
        </mxCell>
        <mxCell id="MnvEVy4aJMQu8oGoP_gj-116" value="球员2" style="rounded=1;whiteSpace=wrap;html=1;" vertex="1" parent="1">
          <mxGeometry x="60" y="-240" width="40" height="40" as="geometry" />
        </mxCell>
        <mxCell id="MnvEVy4aJMQu8oGoP_gj-117" value="已关注比赛的赛程表&lt;br&gt;（横向排列、可滑动）" style="text;html=1;align=center;verticalAlign=middle;whiteSpace=wrap;rounded=0;" vertex="1" parent="1">
          <mxGeometry x="19.25" y="-322" width="121.5" height="30" as="geometry" />
        </mxCell>
        <mxCell id="MnvEVy4aJMQu8oGoP_gj-118" value="" style="rounded=0;whiteSpace=wrap;html=1;" vertex="1" parent="1">
          <mxGeometry x="20" y="-394" width="120" height="67" as="geometry" />
        </mxCell>
        <mxCell id="MnvEVy4aJMQu8oGoP_gj-119" value="" style="rounded=0;whiteSpace=wrap;html=1;" vertex="1" parent="1">
          <mxGeometry x="26.5" y="-367" width="30" height="29" as="geometry" />
        </mxCell>
        <mxCell id="MnvEVy4aJMQu8oGoP_gj-120" value="&lt;font style=&quot;font-size: 9px;&quot;&gt;yyyy-mm-dd hh:mm:ss&lt;/font&gt;" style="text;html=1;align=center;verticalAlign=middle;whiteSpace=wrap;rounded=0;" vertex="1" parent="1">
          <mxGeometry x="1.5" y="-395" width="160" height="11" as="geometry" />
        </mxCell>
        <mxCell id="MnvEVy4aJMQu8oGoP_gj-121" value="&lt;font style=&quot;font-size: 9px;&quot;&gt;比赛类别 比赛组别&lt;/font&gt;" style="text;html=1;align=center;verticalAlign=middle;whiteSpace=wrap;rounded=0;" vertex="1" parent="1">
          <mxGeometry x="1.5" y="-382" width="160" height="11" as="geometry" />
        </mxCell>
        <mxCell id="MnvEVy4aJMQu8oGoP_gj-122" value="&lt;font style=&quot;font-size: 9px;&quot;&gt;1 : 1&lt;/font&gt;&lt;div&gt;&lt;font style=&quot;font-size: 6px;&quot;&gt;(3 : 4)&lt;/font&gt;&lt;/div&gt;" style="text;html=1;align=center;verticalAlign=middle;whiteSpace=wrap;rounded=0;" vertex="1" parent="1">
          <mxGeometry x="51" y="-367" width="60" height="30" as="geometry" />
        </mxCell>
        <mxCell id="MnvEVy4aJMQu8oGoP_gj-123" value="" style="rounded=0;whiteSpace=wrap;html=1;" vertex="1" parent="1">
          <mxGeometry x="104.5" y="-367" width="30" height="29" as="geometry" />
        </mxCell>
        <mxCell id="MnvEVy4aJMQu8oGoP_gj-124" value="我的赛程&lt;br&gt;（横向排列、可滑动）" style="text;html=1;align=center;verticalAlign=middle;whiteSpace=wrap;rounded=0;" vertex="1" parent="1">
          <mxGeometry x="-230" y="275" width="140" height="75" as="geometry" />
        </mxCell>
        <mxCell id="MnvEVy4aJMQu8oGoP_gj-125" value="" style="rounded=0;whiteSpace=wrap;html=1;" vertex="1" parent="1">
          <mxGeometry x="-221.5" y="229" width="120" height="67" as="geometry" />
        </mxCell>
        <mxCell id="MnvEVy4aJMQu8oGoP_gj-126" value="" style="rounded=0;whiteSpace=wrap;html=1;" vertex="1" parent="1">
          <mxGeometry x="-215" y="256" width="30" height="29" as="geometry" />
        </mxCell>
        <mxCell id="MnvEVy4aJMQu8oGoP_gj-127" value="&lt;font style=&quot;font-size: 9px;&quot;&gt;yyyy-mm-dd hh:mm:ss&lt;/font&gt;" style="text;html=1;align=center;verticalAlign=middle;whiteSpace=wrap;rounded=0;" vertex="1" parent="1">
          <mxGeometry x="-240" y="228" width="160" height="11" as="geometry" />
        </mxCell>
        <mxCell id="MnvEVy4aJMQu8oGoP_gj-128" value="&lt;font style=&quot;font-size: 9px;&quot;&gt;比赛类别 比赛组别&lt;/font&gt;" style="text;html=1;align=center;verticalAlign=middle;whiteSpace=wrap;rounded=0;" vertex="1" parent="1">
          <mxGeometry x="-240" y="241" width="160" height="11" as="geometry" />
        </mxCell>
        <mxCell id="MnvEVy4aJMQu8oGoP_gj-129" value="&lt;font style=&quot;font-size: 9px;&quot;&gt;1 : 1&lt;/font&gt;&lt;div&gt;&lt;font style=&quot;font-size: 6px;&quot;&gt;(3 : 4)&lt;/font&gt;&lt;/div&gt;" style="text;html=1;align=center;verticalAlign=middle;whiteSpace=wrap;rounded=0;" vertex="1" parent="1">
          <mxGeometry x="-190.5" y="256" width="60" height="30" as="geometry" />
        </mxCell>
        <mxCell id="MnvEVy4aJMQu8oGoP_gj-130" value="" style="rounded=0;whiteSpace=wrap;html=1;" vertex="1" parent="1">
          <mxGeometry x="-137" y="256" width="30" height="29" as="geometry" />
        </mxCell>
        <mxCell id="MnvEVy4aJMQu8oGoP_gj-132" value="执教球队&lt;br&gt;（纵向排列）" style="text;html=1;align=center;verticalAlign=middle;whiteSpace=wrap;rounded=0;" vertex="1" parent="1">
          <mxGeometry x="-204.75" y="452.5" width="91.5" height="37.5" as="geometry" />
        </mxCell>
        <mxCell id="MnvEVy4aJMQu8oGoP_gj-133" value="" style="rounded=0;whiteSpace=wrap;html=1;" vertex="1" parent="1">
          <mxGeometry x="-235" y="390" width="149" height="40" as="geometry" />
        </mxCell>
        <mxCell id="MnvEVy4aJMQu8oGoP_gj-134" value="&lt;font style=&quot;font-size: 10px;&quot;&gt;队徽&lt;/font&gt;" style="rounded=0;whiteSpace=wrap;html=1;" vertex="1" parent="1">
          <mxGeometry x="-230" y="396.13" width="31.25" height="27.75" as="geometry" />
        </mxCell>
        <mxCell id="MnvEVy4aJMQu8oGoP_gj-135" value="&lt;font style=&quot;font-size: 10px;&quot;&gt;队名&lt;/font&gt;" style="text;html=1;align=center;verticalAlign=middle;whiteSpace=wrap;rounded=0;" vertex="1" parent="1">
          <mxGeometry x="-192" y="390" width="58" height="19.25" as="geometry" />
        </mxCell>
        <mxCell id="MnvEVy4aJMQu8oGoP_gj-136" value="&lt;font style=&quot;font-size: 8px;&quot;&gt;11名球员&lt;/font&gt;" style="text;html=1;align=center;verticalAlign=middle;whiteSpace=wrap;rounded=0;" vertex="1" parent="1">
          <mxGeometry x="-211" y="402.5" width="101" height="30" as="geometry" />
        </mxCell>
        <mxCell id="MnvEVy4aJMQu8oGoP_gj-137" value="" style="rounded=0;whiteSpace=wrap;html=1;" vertex="1" parent="1">
          <mxGeometry x="418.5" y="226" width="120" height="67" as="geometry" />
        </mxCell>
        <mxCell id="MnvEVy4aJMQu8oGoP_gj-138" value="" style="rounded=0;whiteSpace=wrap;html=1;" vertex="1" parent="1">
          <mxGeometry x="425" y="253" width="30" height="29" as="geometry" />
        </mxCell>
        <mxCell id="MnvEVy4aJMQu8oGoP_gj-139" value="&lt;font style=&quot;font-size: 9px;&quot;&gt;yyyy-mm-dd hh:mm:ss&lt;/font&gt;" style="text;html=1;align=center;verticalAlign=middle;whiteSpace=wrap;rounded=0;" vertex="1" parent="1">
          <mxGeometry x="400" y="225" width="160" height="11" as="geometry" />
        </mxCell>
        <mxCell id="MnvEVy4aJMQu8oGoP_gj-140" value="&lt;font style=&quot;font-size: 9px;&quot;&gt;比赛类别 比赛组别&lt;/font&gt;" style="text;html=1;align=center;verticalAlign=middle;whiteSpace=wrap;rounded=0;" vertex="1" parent="1">
          <mxGeometry x="400" y="238" width="160" height="11" as="geometry" />
        </mxCell>
        <mxCell id="MnvEVy4aJMQu8oGoP_gj-141" value="&lt;font style=&quot;font-size: 9px;&quot;&gt;1 : 1&lt;/font&gt;&lt;div&gt;&lt;font style=&quot;font-size: 6px;&quot;&gt;(3 : 4)&lt;/font&gt;&lt;/div&gt;" style="text;html=1;align=center;verticalAlign=middle;whiteSpace=wrap;rounded=0;" vertex="1" parent="1">
          <mxGeometry x="449.5" y="253" width="60" height="30" as="geometry" />
        </mxCell>
        <mxCell id="MnvEVy4aJMQu8oGoP_gj-142" value="" style="rounded=0;whiteSpace=wrap;html=1;" vertex="1" parent="1">
          <mxGeometry x="503" y="253" width="30" height="29" as="geometry" />
        </mxCell>
        <mxCell id="MnvEVy4aJMQu8oGoP_gj-143" value="执法比赛&lt;br&gt;（横向排列、可滑动）&lt;div&gt;&lt;br&gt;&lt;/div&gt;" style="text;html=1;align=center;verticalAlign=middle;whiteSpace=wrap;rounded=0;" vertex="1" parent="1">
          <mxGeometry x="414.25" y="296" width="131.5" height="52.5" as="geometry" />
        </mxCell>
        <mxCell id="MnvEVy4aJMQu8oGoP_gj-144" value="" style="rounded=0;whiteSpace=wrap;html=1;" vertex="1" parent="1">
          <mxGeometry x="406" y="390.01" width="146" height="50" as="geometry" />
        </mxCell>
        <mxCell id="MnvEVy4aJMQu8oGoP_gj-145" value="" style="rounded=0;whiteSpace=wrap;html=1;" vertex="1" parent="1">
          <mxGeometry x="416" y="398.26" width="32.12" height="33.75" as="geometry" />
        </mxCell>
        <mxCell id="MnvEVy4aJMQu8oGoP_gj-146" value="赛事名称" style="text;html=1;align=center;verticalAlign=middle;whiteSpace=wrap;rounded=0;" vertex="1" parent="1">
          <mxGeometry x="465" y="401.64" width="60" height="16.75" as="geometry" />
        </mxCell>
        <mxCell id="MnvEVy4aJMQu8oGoP_gj-147" value="执法赛事&lt;br&gt;（纵向排列）&lt;br&gt;&lt;div&gt;&lt;br&gt;&lt;/div&gt;" style="text;html=1;align=center;verticalAlign=middle;whiteSpace=wrap;rounded=0;" vertex="1" parent="1">
          <mxGeometry x="437.13" y="452.5" width="83.75" height="40" as="geometry" />
        </mxCell>
      </root>
    </mxGraphModel>
  </diagram>
</mxfile>
